<svg xmlns="http://www.w3.org/2000/svg" version="1.1" viewBox="34 141 432 149" style="max-height: 500px" width="432" height="149">
<path transform="translate(247.75,152.70947265625)" fill="#1F0EC1" d="M0 0 C0.98863037 -0.0127597 1.97726074 -0.02551941 2.99584961 -0.03866577 C4.60665405 -0.04200424 4.60665405 -0.04200424 6.25 -0.04541016 C7.90817749 -0.05539536 7.90817749 -0.05539536 9.59985352 -0.06558228 C11.94692315 -0.07572745 14.29402174 -0.08039872 16.64111328 -0.08007812 C20.20785309 -0.08442133 23.77332555 -0.12063932 27.33984375 -0.15869141 C29.62239162 -0.16456537 31.90494535 -0.16853088 34.1875 -0.17041016 C35.24517578 -0.18478119 36.30285156 -0.19915222 37.39257812 -0.21395874 C45.81607198 -0.16283475 53.57564501 1.30181679 59.75 7.41552734 C62.91087435 11.63002647 64.14598012 16.04952585 64.25 21.29052734 C62.87714674 29.38651244 58.72943642 34.43095003 52.25 39.29052734 C52.745 39.97115234 53.24 40.65177734 53.75 41.35302734 C56.15874251 46.07014809 55.64458043 50.26171576 54.25 55.22802734 C53.755 56.74396484 53.755 56.74396484 53.25 58.29052734 C55.23 58.95052734 57.21 59.61052734 59.25 60.29052734 C59.56167613 64.26439802 59.67805011 66.5929642 57.5625 70.04052734 C51.79074481 75.65628915 46.71761975 76.45431499 38.875 76.60302734 C37.58851563 76.64041016 36.30203125 76.67779297 34.9765625 76.71630859 C29.86609435 76.13240814 26.79994945 74.05426293 23.4375 70.22802734 C20.42878589 65.31907274 20.75865334 60.57586067 21.921875 55.16552734 C22.66405362 52.19681286 23.43625219 49.24036315 24.25 46.29052734 C21.94 45.96052734 19.63 45.63052734 17.25 45.29052734 C16.18463595 50.24498733 15.17971523 55.21395111 14.4375 60.22802734 C14.32792969 60.93830078 14.21835937 61.64857422 14.10546875 62.38037109 C14.29950329 64.94477358 15.41837111 65.57541429 17.25 67.29052734 C17.625 70.35302734 17.625 70.35302734 17.25 73.29052734 C13.44656251 75.82615233 10.37494726 75.57889269 5.96875 75.55615234 C5.1588562 75.5580658 4.3489624 75.55997925 3.51452637 75.56195068 C1.80313811 75.56331096 0.09173949 75.55962551 -1.61962891 75.55126953 C-4.24014448 75.54056759 -6.85997452 75.55116994 -9.48046875 75.56396484 C-11.14323068 75.56264322 -12.80599218 75.56008077 -14.46875 75.55615234 C-15.25318481 75.56020081 -16.03761963 75.56424927 -16.8458252 75.56842041 C-20.6750538 75.5353898 -22.48815682 75.46508946 -25.75 73.29052734 C-26.3125 70.47802734 -26.3125 70.47802734 -25.75 67.29052734 C-24.82509766 66.63181641 -23.90019531 65.97310547 -22.94726562 65.29443359 C-18.35428337 61.64738535 -17.49316348 56.50413876 -16.03125 51.04052734 C-15.72425171 49.9496582 -15.41725342 48.85878906 -15.10095215 47.73486328 C-14.45901607 45.43465404 -13.8275915 43.13148855 -13.20605469 40.82568359 C-12.25125006 37.29514964 -11.25723684 33.77740825 -10.2578125 30.25927734 C-9.63826281 28.02034633 -9.02099639 25.78078197 -8.40625 23.54052734 C-8.10851685 22.48833008 -7.81078369 21.43613281 -7.50402832 20.35205078 C-7.24295288 19.3675293 -6.98187744 18.38300781 -6.71289062 17.36865234 C-6.47783813 16.5065918 -6.24278564 15.64453125 -6.00061035 14.75634766 C-5.69344155 11.73403402 -6.53106966 10.03351233 -7.75 7.29052734 C-7.22754049 1.67408761 -5.55427504 0.0485922 0 0 Z M-2.75 6.29052734 C-2.42 6.95052734 -2.09 7.61052734 -1.75 8.29052734 C-1.33465868 15.34047975 -2.48117429 21.10550905 -4.48828125 27.83740234 C-4.76971481 28.81163147 -5.05114838 29.7858606 -5.34111023 30.78961182 C-5.93480584 32.83504757 -6.53433188 34.8787992 -7.1394043 36.92089844 C-8.0627335 40.04131647 -8.96532429 43.16719085 -9.86523438 46.29443359 C-10.44670374 48.28827731 -11.02934577 50.28177949 -11.61328125 52.27490234 C-11.88215652 53.2051825 -12.1510318 54.13546265 -12.42805481 55.09393311 C-14.20102048 61.03583823 -16.04259322 66.03144502 -20.75 70.29052734 C-19.63652404 71.63049667 -19.63652404 71.63049667 -16.79077148 71.40405273 C-14.85053101 71.39619751 -14.85053101 71.39619751 -12.87109375 71.38818359 C-12.1844313 71.38676865 -11.49776886 71.3853537 -10.79029846 71.38389587 C-8.58932199 71.37828214 -6.38844591 71.36572741 -4.1875 71.35302734 C-2.69856917 71.34801411 -1.20963676 71.3434509 0.27929688 71.33935547 C3.93623075 71.32830827 7.59310558 71.31103447 11.25 71.29052734 C11.5273501 68.10562728 11.5273501 68.10562728 9.25 65.29052734 C8.73134918 59.520537 10.03050339 54.7764126 11.75 49.35302734 C11.98847656 48.57378906 12.22695313 47.79455078 12.47265625 46.99169922 C13.05642178 45.08862359 13.65199976 43.18917812 14.25 41.29052734 C15.66623216 41.23605688 17.08308191 41.19752227 18.5 41.16552734 C19.28890625 41.14232422 20.0778125 41.11912109 20.890625 41.09521484 C23.52205889 41.31304877 25.06495023 41.81440483 27.25 43.29052734 C28.60840833 48.14198567 28.06044572 51.62371397 26.74609375 56.31005859 C25.64021248 60.72487597 25.61139146 64.04107585 27.6875 68.10302734 C31.95280533 71.74414165 36.34269564 72.50188923 41.8828125 72.09912109 C46.90509475 71.26707135 50.71339891 70.18078855 54.25 66.29052734 C54.25 65.30052734 54.25 64.31052734 54.25 63.29052734 C52.27 62.79552734 52.27 62.79552734 50.25 62.29052734 C49.39635081 57.9274315 49.2947326 54.56850516 50 50.16552734 C50.49035365 46.14462742 50.50598211 45.64605806 48 42.16552734 C45.39161662 40.00885893 45.39161662 40.00885893 42.25 40.29052734 C42.25 38.64052734 42.25 36.99052734 42.25 35.29052734 C43.796875 35.16677734 43.796875 35.16677734 45.375 35.04052734 C50.57597211 34.03388758 53.78636903 32.15791859 57.0625 27.97802734 C59.17054314 23.20719287 59.64560446 19.72459351 58.25 14.66552734 C55.3653143 9.79762023 52.41781215 7.14860557 46.87866211 5.64819336 C38.29745842 4.14127651 29.8680444 3.98404048 21.18359375 4.02978516 C18.72631863 4.04063188 16.26975481 4.02976616 13.8125 4.01708984 C12.23958173 4.01840947 10.6666639 4.02096778 9.09375 4.02490234 C8.00000061 4.01882965 8.00000061 4.01882965 6.88415527 4.01263428 C3.18102034 4.04688001 0.39622045 4.2412104 -2.75 6.29052734 Z"/>
<path transform="translate(69.078857421875,152.61181640625)" fill="#1A06D4" d="M0 0 C1.55257759 -0.01418472 1.55257759 -0.01418472 3.13652039 -0.02865601 C4.8146154 -0.01954697 4.8146154 -0.01954697 6.52661133 -0.01025391 C8.25636955 -0.01455917 8.25636955 -0.01455917 10.02107239 -0.01895142 C12.46473683 -0.02099486 14.90841753 -0.01544551 17.35205078 -0.00292969 C21.07663068 0.01304628 24.80011327 -0.00273201 28.5246582 -0.02197266 C30.90031163 -0.01998885 33.27596437 -0.01614233 35.65161133 -0.01025391 C36.76022018 -0.0163266 37.86882904 -0.02239929 39.0110321 -0.02865601 C46.21080877 0.03613629 52.18747766 0.64322437 58.16333008 5.03662109 C62.50695947 9.62964547 64.59871917 12.67061485 65.35864258 19.07568359 C65.18450262 24.49450942 63.0005355 28.9995001 59.92114258 33.38818359 C57.42880987 35.71006102 54.82568284 37.61518879 51.92114258 39.38818359 C52.74614258 40.13068359 53.57114258 40.87318359 54.42114258 41.63818359 C57.69112432 45.57893082 57.57090931 49.39493359 57.33129883 54.35302734 C56.44907885 60.88145521 54.39455037 65.56028863 49.23364258 69.76318359 C41.06691516 75.74395613 31.76560151 75.83370633 22.02270508 75.78662109 C20.71079193 75.78949127 19.39887878 75.79236145 18.04721069 75.7953186 C15.28876998 75.79971247 12.53062307 75.79340069 9.7722168 75.77929688 C6.23801458 75.76210479 2.70449095 75.77212683 -0.82968712 75.79001427 C-4.21227793 75.80344505 -7.59468484 75.79405403 -10.97729492 75.78662109 C-12.88035904 75.79573013 -12.88035904 75.79573013 -14.8218689 75.80502319 C-16.57982285 75.79083847 -16.57982285 75.79083847 -18.37329102 75.77636719 C-19.40537689 75.77398041 -20.43746277 75.77159363 -21.50082397 75.76913452 C-24.07885742 75.38818359 -24.07885742 75.38818359 -25.93545532 74.04751587 C-27.07885742 72.38818359 -27.07885742 72.38818359 -27.07885742 69.45068359 C-26.07885742 66.38818359 -26.07885742 66.38818359 -23.72729492 64.83349609 C-19.83352134 61.23836001 -19.07685094 57.21880745 -17.70385742 52.20068359 C-17.27266602 50.69199707 -17.27266602 50.69199707 -16.83276367 49.15283203 C-16.22206254 47.00942968 -15.61841783 44.86400633 -15.02124023 42.71679688 C-14.07145315 39.36203078 -13.06302201 36.02981058 -12.03979492 32.69677734 C-11.38522365 30.51085634 -10.7315533 28.32466531 -10.07885742 26.13818359 C-9.76384277 25.12860596 -9.44882812 24.11902832 -9.12426758 23.07885742 C-7.32591377 16.88185507 -6.92626928 12.05426323 -8.04760742 5.67431641 C-8.07885742 3.38818359 -8.07885742 3.38818359 -6.89823914 1.76956177 C-4.48730251 -0.06095857 -3.01113467 0.00789122 0 0 Z M-3.07885742 5.38818359 C-2.85633301 6.63760742 -2.63380859 7.88703125 -2.40454102 9.17431641 C-1.7555063 15.12073277 -3.20516314 20.13268674 -4.86791992 25.81005859 C-5.31837173 27.40457855 -5.31837173 27.40457855 -5.77792358 29.03131104 C-6.41390452 31.26571217 -7.05815014 33.49777573 -7.71020508 35.72753906 C-8.70298697 39.13519582 -9.66003854 42.55151754 -10.61401367 45.97021484 C-11.23819868 48.14660438 -11.86443138 50.32240791 -12.49291992 52.49755859 C-12.91826523 54.0242215 -12.91826523 54.0242215 -13.35220337 55.58172607 C-15.03546591 61.23890115 -16.52443262 64.60123025 -21.07885742 68.38818359 C-21.57385742 69.37818359 -21.57385742 69.37818359 -22.07885742 70.38818359 C-19.79174172 71.53174145 -18.50098086 71.52052328 -15.95898438 71.53344727 C-15.10661697 71.53982712 -14.25424957 71.54620697 -13.37605286 71.55278015 C-11.98564034 71.55444939 -11.98564034 71.55444939 -10.56713867 71.55615234 C-9.60672165 71.55948074 -8.64630463 71.56280914 -7.65678406 71.5662384 C-5.61315388 71.57131268 -3.56951538 71.57364658 -1.52587891 71.57348633 C1.55100969 71.57564319 4.62752204 71.59370997 7.7043457 71.61279297 C29.84873144 72.60015956 29.84873144 72.60015956 48.92114258 63.38818359 C52.10905589 59.13763252 52.49565525 54.98828366 52.34692383 49.79833984 C51.63895029 45.7908199 49.90936249 44.09842956 46.92114258 41.38818359 C45.43614258 40.89318359 45.43614258 40.89318359 43.92114258 40.38818359 C43.59114258 38.73818359 43.26114258 37.08818359 42.92114258 35.38818359 C44.09676758 35.18193359 45.27239258 34.97568359 46.48364258 34.76318359 C51.37096782 33.53918207 54.58085815 31.10783551 57.92114258 27.38818359 C60.23934801 23.45731351 60.54228429 19.89146101 59.92114258 15.38818359 C56.82404376 10.03163547 52.82738714 7.22115604 46.92114258 5.38818359 C41.14898131 4.49968375 35.54734056 4.24065505 29.71411133 4.25537109 C28.86690018 4.25441437 28.01968903 4.25345764 27.14680481 4.25247192 C25.37114385 4.25179599 23.59548033 4.253609 21.81982422 4.2578125 C19.09898392 4.26320273 16.37830617 4.25783052 13.6574707 4.25146484 C11.92635055 4.25212508 10.19523049 4.2534051 8.46411133 4.25537109 C7.65161423 4.25334686 6.83911713 4.25132263 6.0019989 4.24923706 C2.71885733 4.26294867 0.05778189 4.34263716 -3.07885742 5.38818359 Z"/>
<path transform="translate(361.75,152.50390625)" fill="#1E0CC6" d="M0 0 C0.96848877 -0.00145523 1.93697754 -0.00291046 2.93481445 -0.00440979 C4.98928831 -0.00274836 7.0437743 0.00884005 9.09814453 0.02954102 C12.21051428 0.05822978 15.32115162 0.05020763 18.43359375 0.03710938 C20.43490398 0.04335545 22.43620888 0.05175314 24.4375 0.0625 C25.81470215 0.05809654 25.81470215 0.05809654 27.21972656 0.05360413 C36.04846634 0.17937093 45.3763332 1.58154325 52.25 7.49609375 C59.26095851 15.66452182 59.99266226 22.68534711 59.47216797 33.16650391 C58.32303511 45.21598276 52.81981707 57.59486419 43.9375 65.87109375 C33.43563952 74.00005063 22.45144349 75.81207366 9.50390625 75.76171875 C7.86541969 75.76458893 7.86541969 75.76458893 6.1938324 75.76751709 C3.90208707 75.76887049 1.61033386 75.76523351 -0.68139648 75.75683594 C-4.20118144 75.74605183 -7.72046438 75.75679709 -11.24023438 75.76953125 C-13.4713553 75.76821092 -15.7024759 75.76565117 -17.93359375 75.76171875 C-18.98872665 75.76576721 -20.04385956 75.76981567 -21.13096619 75.77398682 C-22.58872215 75.76453033 -22.58872215 75.76453033 -24.07592773 75.75488281 C-24.9325853 75.75329163 -25.78924286 75.75170044 -26.67185974 75.75006104 C-28.75 75.49609375 -28.75 75.49609375 -30.75 73.49609375 C-31.1875 70.62109375 -31.1875 70.62109375 -30.75 67.49609375 C-29.97398437 66.93664062 -29.19796875 66.3771875 -28.3984375 65.80078125 C-24.9733827 62.82027633 -24.11743038 59.727676 -22.9375 55.49609375 C-22.6988623 54.68954346 -22.46022461 53.88299316 -22.21435547 53.05200195 C-21.6805887 51.23574502 -21.15540182 49.41695234 -20.63720703 47.59619141 C-19.64584442 44.1321511 -18.61843558 40.67972446 -17.58984375 37.2265625 C-16.85012679 34.7126616 -16.11183885 32.19833975 -15.375 29.68359375 C-15.01688232 28.47380859 -14.65876465 27.26402344 -14.28979492 26.01757812 C-13.95955322 24.86966797 -13.62931152 23.72175781 -13.2890625 22.5390625 C-12.99209473 21.5183667 -12.69512695 20.4976709 -12.38916016 19.44604492 C-11.46966815 15.20226269 -11.50666212 11.60217502 -12.4375 7.37109375 C-12.75 4.49609375 -12.75 4.49609375 -11.87890625 2.34741211 C-8.37651482 -0.69830283 -4.48482393 -0.05392366 0 0 Z M-7.75 6.49609375 C-7.42 7.15609375 -7.09 7.81609375 -6.75 8.49609375 C-6.29249562 15.20047475 -7.65154979 20.78858126 -9.5234375 27.19921875 C-9.80724274 28.19943054 -10.09104797 29.19964233 -10.38345337 30.23016357 C-10.98215413 32.33258598 -11.58587263 34.43358531 -12.19433594 36.53320312 C-13.12522756 39.74687935 -14.04045131 42.9647016 -14.953125 46.18359375 C-15.53815498 48.23072832 -16.12406221 50.27761243 -16.7109375 52.32421875 C-16.98497406 53.28467102 -17.25901062 54.24512329 -17.54135132 55.23468018 C-17.80147003 56.12951111 -18.06158875 57.02434204 -18.32958984 57.94628906 C-18.55609222 58.73046204 -18.7825946 59.51463501 -19.01596069 60.3225708 C-20.48875092 64.68356801 -22.37690614 67.34787281 -25.75 70.49609375 C-22.66539129 72.03839811 -19.4099167 71.67999887 -16.0234375 71.69921875 C-15.24296051 71.70491882 -14.46248352 71.7106189 -13.65835571 71.7164917 C-11.99555823 71.72595761 -10.33274185 71.73248197 -8.66992188 71.73632812 C-6.18323146 71.7458703 -3.69742785 71.77680482 -1.2109375 71.80859375 C13.62772499 71.90707429 30.12173763 71.48200895 41.8125 61.09375 C50.55879019 51.37300901 54.51625335 38.29922407 55.25 25.49609375 C54.8885057 19.12823259 52.9859671 14.92319343 48.25 10.49609375 C37.99828641 2.97486078 22.68155748 4.1741143 10.625 4.24609375 C9.27734007 4.23894436 7.92968348 4.2311341 6.58203125 4.22265625 C5.30457031 4.22523438 4.02710938 4.2278125 2.7109375 4.23046875 C0.99076416 4.23385254 0.99076416 4.23385254 -0.76416016 4.23730469 C-3.64799326 4.48725261 -5.31186489 4.99398176 -7.75 6.49609375 Z"/>
<path transform="translate(180.84375,152.56640625)" fill="#1F0DC4" d="M0 0 C0.76550171 -0.00524185 1.53100342 -0.0104837 2.31970215 -0.0158844 C3.93691801 -0.02230307 5.55418056 -0.02096955 7.17138672 -0.01245117 C9.64765347 -0.00393581 12.12161719 -0.03270903 14.59765625 -0.06445312 C16.16927014 -0.06606511 17.74088812 -0.06548766 19.3125 -0.0625 C20.05318726 -0.07373398 20.79387451 -0.08496796 21.55700684 -0.09654236 C24.88889892 -0.0512969 26.68521443 -0.00416213 29.17773438 2.31225586 C30.15625 4.43359375 30.15625 4.43359375 29.65625 6.87109375 C28.15625 9.43359375 28.15625 9.43359375 25.77294922 11.46069336 C22.23156873 15.48414831 21.20491394 19.46186589 19.7890625 24.5625 C19.36329422 26.04072487 19.36329422 26.04072487 18.92892456 27.54881287 C18.33429267 29.63183494 17.74813172 31.71729148 17.16992188 33.80493164 C16.28882465 36.96889368 15.36911382 40.11976413 14.4453125 43.27148438 C13.87001243 45.30531691 13.29702172 47.33980437 12.7265625 49.375 C12.45272736 50.30357315 12.17889221 51.2321463 11.89675903 52.18885803 C10.21091252 58.42886778 10.15498844 63.50837449 11.1401062 69.90440369 C11.15625 72.43359375 11.15625 72.43359375 9.90493774 74.25285339 C6.98477896 76.22458867 3.71633512 75.85993837 0.3125 75.83203125 C-0.83575256 75.83633652 -0.83575256 75.83633652 -2.00720215 75.84072876 C-3.62443787 75.84276875 -5.2416983 75.83724338 -6.85888672 75.82470703 C-9.33487091 75.80865133 -11.80922285 75.82455672 -14.28515625 75.84375 C-15.85677444 75.84176756 -17.42839161 75.83792385 -19 75.83203125 C-19.74068726 75.83810394 -20.48137451 75.84417664 -21.24450684 75.85043335 C-26.32850693 75.78083926 -26.32850693 75.78083926 -28.83398438 74.09228516 C-29.84375 72.43359375 -29.84375 72.43359375 -29.84375 69.49609375 C-28.84375 66.43359375 -28.84375 66.43359375 -26.4921875 64.9140625 C-22.50648497 61.18114051 -21.81550983 56.86820848 -20.46875 51.68359375 C-19.87884056 49.51789201 -19.28765665 47.35253709 -18.6953125 45.1875 C-18.3952832 44.07391113 -18.09525391 42.96032227 -17.78613281 41.81298828 C-16.85784379 38.48413422 -15.84892043 35.19259001 -14.8046875 31.8984375 C-14.47645996 30.8455957 -14.14823242 29.79275391 -13.81005859 28.70800781 C-13.18363374 26.70686687 -12.54411055 24.70976068 -11.88916016 22.71777344 C-10.03632059 16.66256296 -9.71865557 11.99891275 -10.8125 5.73950195 C-10.84375 3.43359375 -10.84375 3.43359375 -9.86523438 1.64892578 C-6.73809739 -0.23113315 -3.54529582 -0.01405142 0 0 Z M-5.84375 5.43359375 C-5.51564331 7.32235229 -5.51564331 7.32235229 -5.1809082 9.24926758 C-4.54972496 15.02526674 -5.85943865 19.85651664 -7.44921875 25.3828125 C-7.72969559 26.39906204 -8.01017242 27.41531158 -8.29914856 28.46235657 C-8.89257687 30.59825726 -9.49392895 32.7319707 -10.1027832 34.86352539 C-11.02994322 38.11650887 -11.92786379 41.37654803 -12.82226562 44.63867188 C-13.40453399 46.72053279 -13.98846237 48.80193029 -14.57421875 50.8828125 C-14.84106979 51.85167892 -15.10792084 52.82054535 -15.38285828 53.81877136 C-17.30588401 60.47841011 -19.58278422 65.69872455 -24.84375 70.43359375 C-22.15940123 71.77576814 -20.06871866 71.5632106 -17.06640625 71.56640625 C-15.33680664 71.56833984 -15.33680664 71.56833984 -13.57226562 71.5703125 C-11.75758789 71.56451172 -11.75758789 71.56451172 -9.90625 71.55859375 C-8.09737305 71.56439453 -8.09737305 71.56439453 -6.25195312 71.5703125 C-5.09759766 71.56902344 -3.94324219 71.56773437 -2.75390625 71.56640625 C-1.69308838 71.56527832 -0.63227051 71.56415039 0.46069336 71.56298828 C3.2559944 71.550555 3.2559944 71.550555 6.15625 70.43359375 C6.05301926 69.8406955 5.94978851 69.24779724 5.84342957 68.63693237 C4.84746365 61.58760169 5.84046625 56.09383814 7.83203125 49.31640625 C8.11725143 48.29682831 8.40247162 47.27725037 8.69633484 46.22677612 C9.6041193 42.99915647 10.5364778 39.7792143 11.46875 36.55859375 C12.08420475 34.37412628 12.69815162 32.18923339 13.31054688 30.00390625 C13.89969746 27.92019239 14.49014686 25.83684522 15.08203125 23.75390625 C15.49779167 22.28982834 15.49779167 22.28982834 15.92195129 20.7961731 C16.1852977 19.88777679 16.4486441 18.97938049 16.7199707 18.04345703 C16.94948929 17.24755157 17.17900787 16.45164612 17.41548157 15.63162231 C18.8894606 11.25799099 20.77390407 8.59044995 24.15625 5.43359375 C22.39099707 3.66834082 19.8670891 4.3033132 17.4765625 4.30078125 C16.32027344 4.29949219 15.16398437 4.29820312 13.97265625 4.296875 C12.75449219 4.30074219 11.53632813 4.30460938 10.28125 4.30859375 C8.46560547 4.30279297 8.46560547 4.30279297 6.61328125 4.296875 C5.45441406 4.29816406 4.29554688 4.29945313 3.1015625 4.30078125 C2.03437988 4.30190918 0.96719727 4.30303711 -0.13232422 4.30419922 C-2.9409952 4.31564952 -2.9409952 4.31564952 -5.84375 5.43359375 Z"/>
<path transform="translate(317,244)" fill="#1D06DB" d="M0 0 C6.991875 -0.0928125 6.991875 -0.0928125 14.125 -0.1875 C15.58437988 -0.21481201 17.04375977 -0.24212402 18.54736328 -0.27026367 C19.70993652 -0.27775635 20.87250977 -0.28524902 22.0703125 -0.29296875 C23.25383301 -0.3086792 24.43735352 -0.32438965 25.65673828 -0.34057617 C29.40453432 0.04120968 31.78929856 1.0637146 35 3 C37.14539303 5.92662859 37.1830091 8.03423644 36.6875 11.5625 C36.58824219 12.32691406 36.48898437 13.09132813 36.38671875 13.87890625 C36 16 36 16 35 19 C35.309375 19.7425 35.61875 20.485 35.9375 21.25 C37.23961555 24.62018141 37.14047634 27.41785339 37 31 C32.71 31 28.42 31 24 31 C23.34 28.03 22.68 25.06 22 22 C19.36 21.34 16.72 20.68 14 20 C14 23.63 14 27.26 14 31 C9.38 31 4.76 31 0 31 C0 20.77 0 10.54 0 0 Z M14 9 C14 9.99 14 10.98 14 12 C16.97 12 19.94 12 23 12 C23 11.01 23 10.02 23 9 C20.03 9 17.06 9 14 9 Z"/>
<path transform="translate(453,249)" fill="#1C07D7" d="M0 0 C1.21484375 2.16796875 1.21484375 2.16796875 2 4 C-1.61973402 5.31626692 -4.09567131 6 -8 6 C-8 6.66 -8 7.32 -8 8 C-6.9275 8.061875 -5.855 8.12375 -4.75 8.1875 C-1 9 -1 9 1.5 11.125 C3.50686067 14.97148295 3.27176524 16.88546541 2 21 C-2.13732332 25.50238126 -6.91699838 26.75490782 -12.80078125 27.22265625 C-20.48426688 27.44720539 -27.35790827 26.84260818 -33.5625 22 C-35 20 -35 20 -35 17 C-27.15384615 14.53846154 -27.15384615 14.53846154 -23 15 C-22.01 15.66 -21.02 16.32 -20 17 C-17.66800612 17.07905064 -15.33167378 17.08798769 -13 17 C-15.34515888 14.65484112 -21.24852166 14.82513994 -24.56640625 14.36914062 C-29.39540136 13.60600927 -32.47332522 12.63602904 -36 9 C-37.18740983 5.51198362 -37.28592522 3.76842404 -36 0.3125 C-32.16663796 -4.11982486 -26.93428202 -5.42155625 -21.234375 -5.9296875 C-13.22516783 -6.18172549 -6.11953287 -5.69009197 0 0 Z M-22 4 C-21.67 4.66 -21.34 5.32 -21 6 C-18.41394668 6.4683265 -18.41394668 6.4683265 -15.4375 6.625 C-13.91962891 6.73714844 -13.91962891 6.73714844 -12.37109375 6.8515625 C-11.19740234 6.92503906 -11.19740234 6.92503906 -10 7 C-10.66 6.01 -11.32 5.02 -12 4 C-14.43693311 3.63583953 -14.43693311 3.63583953 -17.125 3.8125 C-18.03507812 3.83957031 -18.94515625 3.86664063 -19.8828125 3.89453125 C-20.58148438 3.92933594 -21.28015625 3.96414062 -22 4 Z"/>
<path transform="translate(369,244)" fill="#1901E4" d="M0 0 C10.89 0 21.78 0 33 0 C33 2.97 33 5.94 33 9 C26.73 9 20.46 9 14 9 C14 9.66 14 10.32 14 11 C20.27 11 26.54 11 33 11 C33 13.97 33 16.94 33 20 C26.73 20 20.46 20 14 20 C14 20.66 14 21.32 14 22 C20.27 22 26.54 22 33 22 C33 24.97 33 27.94 33 31 C22.11 31 11.22 31 0 31 C0 20.77 0 10.54 0 0 Z"/>
<path transform="translate(264,244)" fill="#1C06D7" d="M0 0 C4.95 0 9.9 0 15 0 C15.33 6.93 15.66 13.86 16 21 C17.98 20.34 19.96 19.68 22 19 C22.33 12.73 22.66 6.46 23 0 C27.62 0 32.24 0 37 0 C37.10825949 3.54249117 37.18744405 7.08165249 37.25 10.625 C37.30027344 12.12353516 37.30027344 12.12353516 37.3515625 13.65234375 C37.43283748 19.78860445 37.14020209 23.35360531 33 28 C26.83003376 32.47322553 20.41035138 32.58778991 13 32 C8.43768987 30.86360041 4.93605554 28.69725512 2 25 C-0.69391239 20.12027969 -0.22437888 15.0960044 -0.125 9.6875 C-0.11597656 8.75615234 -0.10695313 7.82480469 -0.09765625 6.86523438 C-0.07418422 4.57671177 -0.03831609 2.28832221 0 0 Z"/>
<path transform="translate(194,248)" fill="#1C05DC" d="M0 0 C2.33333983 2.48889582 3.53125099 4.60156968 4 8 C2.12175109 9.87824891 -1.03935276 9.39102397 -3.5625 9.5625 C-4.76003906 9.64628906 -5.95757812 9.73007812 -7.19140625 9.81640625 C-8.11824219 9.87699219 -9.04507813 9.93757813 -10 10 C-10.33 9.01 -10.66 8.02 -11 7 C-13.64 7 -16.28 7 -19 7 C-19.26932521 11.65052872 -19.26932521 11.65052872 -18 16 C-15.08365871 16.2502157 -15.08365871 16.2502157 -12 16 C-11.34 15.01 -10.68 14.02 -10 13 C-5.38 13.66 -0.76 14.32 4 15 C1.93594654 21.19216038 1.11604822 22.45812046 -4 26 C-10.01792138 28.93898486 -17.14305769 28.97888961 -23.5703125 27.34765625 C-28.04338057 25.62781325 -31.28944082 23.65961733 -33.41015625 19.125 C-35.02869715 13.29396522 -34.95715552 7.91431105 -32.25 2.5 C-23.74989027 -6.94456637 -10.1779949 -7.26999636 0 0 Z"/>
<path transform="translate(79,244)" fill="#1A01E1" d="M0 0 C6.991875 -0.0928125 6.991875 -0.0928125 14.125 -0.1875 C15.58437988 -0.21481201 17.04375977 -0.24212402 18.54736328 -0.27026367 C19.70993652 -0.27775635 20.87250977 -0.28524902 22.0703125 -0.29296875 C23.25383301 -0.3086792 24.43735352 -0.32438965 25.65673828 -0.34057617 C29.43014341 0.04381846 31.78788669 1.00823338 35 3 C37.46406448 6.69609672 37.67864807 9.71027391 37 14 C34.60724744 18.0765414 32.44013816 19.6031026 28 21 C24.66796875 21.1953125 24.66796875 21.1953125 21.1875 21.125 C20.02605469 21.10695313 18.86460938 21.08890625 17.66796875 21.0703125 C16.78753906 21.04710937 15.90710938 21.02390625 15 21 C15 24.3 15 27.6 15 31 C10.05 31 5.1 31 0 31 C0 20.77 0 10.54 0 0 Z M15 9 C15 9.99 15 10.98 15 12 C17.64 12 20.28 12 23 12 C23 11.01 23 10.02 23 9 C20.36 9 17.72 9 15 9 Z"/>
<path transform="translate(212,244)" fill="#1901E4" d="M0 0 C12.21 0 24.42 0 37 0 C37 3.3 37 6.6 37 10 C33.37 10 29.74 10 26 10 C26 16.93 26 23.86 26 31 C21.38 31 16.76 31 12 31 C12 24.07 12 17.14 12 10 C8.04 10 4.08 10 0 10 C0 6.7 0 3.4 0 0 Z"/>
<path transform="translate(379,162)" fill="#200EC3" d="M0 0 C5.37656087 -0.27338445 8.56699758 -0.38994303 13 3 C16.06678165 6.06678165 15.97586566 8.31985054 16.12890625 12.6328125 C16.10313787 17.00848085 15.35541669 21.01315095 14.3125 25.25 C14.13460938 25.98581299 13.95671875 26.72162598 13.7734375 27.47973633 C11.56179209 36.23766151 8.55183218 44.78261817 3 52 C2.566875 52.5775 2.13375 53.155 1.6875 53.75 C-3.24061947 57.40045886 -9.16629869 57.20469127 -15 57 C-14.36914381 50.43503179 -12.87888401 44.34819016 -11.09375 38.0078125 C-10.80898804 36.98066132 -10.52422607 35.95351013 -10.23083496 34.89523315 C-9.63163748 32.7380114 -9.02974364 30.58153697 -8.42529297 28.42578125 C-7.49754275 25.11623431 -6.5781597 21.8044498 -5.66015625 18.4921875 C-5.07600444 16.39309452 -4.49138557 14.29413146 -3.90625 12.1953125 C-3.63018921 11.20266388 -3.35412842 10.21001526 -3.06970215 9.18728638 C-2.8127356 8.27228363 -2.55576904 7.35728088 -2.29101562 6.41455078 C-1.95245544 5.20498215 -1.95245544 5.20498215 -1.60705566 3.97097778 C-1 2 -1 2 0 0 Z M4 5 C1.83927947 10.54201872 0.05230962 16.06006278 -1.48046875 21.8046875 C-1.69818436 22.60987823 -1.91589996 23.41506897 -2.14021301 24.24465942 C-2.59494397 25.92985391 -3.04777835 27.61556124 -3.4987793 29.30175781 C-4.19152169 31.89002609 -4.89121648 34.47634352 -5.59179688 37.0625 C-6.03426281 38.70561918 -6.47633445 40.3488446 -6.91796875 41.9921875 C-7.12729538 42.76609833 -7.33662201 43.54000916 -7.55229187 44.33737183 C-8.61943551 48.11586242 -8.61943551 48.11586242 -9 52 C-5.93140009 52 -3.78015772 51.69608057 -1.44140625 49.609375 C6.56267829 39.71341593 10.73802386 25.02807047 11.4375 12.4375 C11.27401932 8.95704842 11.27401932 8.95704842 9.1875 6.5 C7.02970006 4.71723582 7.02970006 4.71723582 4 5 Z"/>
<path transform="translate(131,244)" fill="#1901E3" d="M0 0 C4.62 0 9.24 0 14 0 C14 10.23 14 20.46 14 31 C9.38 31 4.76 31 0 31 C0 20.77 0 10.54 0 0 Z"/>
<path transform="translate(369,244)" fill="#210FC3" d="M0 0 C10.89 0 21.78 0 33 0 C33 2.97 33 5.94 33 9 C26.73 9 20.46 9 14 9 C14 9.66 14 10.32 14 11 C20.27 11 26.54 11 33 11 C33 13.97 33 16.94 33 20 C26.73 20 20.46 20 14 20 C14 20.66 14 21.32 14 22 C20.27 22 26.54 22 33 22 C33 24.97 33 27.94 33 31 C22.11 31 11.22 31 0 31 C0 20.77 0 10.54 0 0 Z M2 3 C1.91251793 4.92667507 1.89302666 6.85651861 1.90234375 8.78515625 C1.90484131 9.83840088 1.90733887 10.89164551 1.90991211 11.97680664 C1.91901611 13.32508545 1.92812012 14.67336426 1.9375 16.0625 C1.958125 20.331875 1.97875 24.60125 2 29 C11.9 29 21.8 29 32 29 C32 27.02 32 25.04 32 23 C26.06 22.67 20.12 22.34 14 22 C13.67 21.01 13.34 20.02 13 19 C19.27 19 25.54 19 32 19 C32 16.69 32 14.38 32 12 C25.73 12 19.46 12 13 12 C13 9.03 13 6.06 13 3 C11.99530377 1.7754822 11.99530377 1.7754822 9.96875 1.8671875 C9.1540625 1.86976563 8.339375 1.87234375 7.5 1.875 C6.6853125 1.87242187 5.870625 1.86984375 5.03125 1.8671875 C3.00469623 1.7754822 3.00469623 1.7754822 2 3 Z"/>
<path transform="translate(81,245)" fill="#1900E5" d="M0 0 C4.29 0 8.58 0 13 0 C13 0.66 13 1.32 13 2 C14.32 2.33 15.64 2.66 17 3 C17 2.34 17 1.68 17 1 C17.66 1 18.32 1 19 1 C19.33 1.99 19.66 2.98 20 4 C18.865625 4.37125 17.73125 4.7425 16.5625 5.125 C14.6185869 5.86637873 14.6185869 5.86637873 13 7 C11.94250443 10.08369887 11.94250443 10.08369887 12 13 C15.98196457 14.05404945 18.98195309 13.84098656 23 13 C23 13.66 23 14.32 23 15 C21.84371094 15.43699219 21.84371094 15.43699219 20.6640625 15.8828125 C14.31909004 18.2269517 14.31909004 18.2269517 10.3125 23.3125 C10.1578125 24.6428125 10.1578125 24.6428125 10 26 C9.67 25.01 9.34 24.02 9 23 C8.01 25.475 8.01 25.475 7 28 C4.69 28 2.38 28 0 28 C0 18.76 0 9.52 0 0 Z"/>
<path transform="translate(69,153)" fill="#1E0BCA" d="M0 0 C-3.75 3 -3.75 3 -6 3 C-5.67 5.31 -5.34 7.62 -5 10 C-3.55245745 8.55245745 -3.44266439 6.96037087 -3 5 C0.39484016 10.84861047 -1.61912151 16.82918868 -3.2434082 23.07324219 C-3.75436977 24.90008924 -4.27386023 26.72456709 -4.80078125 28.546875 C-5.07842819 29.52110413 -5.35607513 30.49533325 -5.64213562 31.49908447 C-6.22762344 33.54393017 -6.8169413 35.58768278 -7.40991211 37.63037109 C-8.31279736 40.75102779 -9.19501295 43.87705505 -10.07617188 47.00390625 C-10.6497961 48.9977546 -11.22462456 50.99125697 -11.80078125 52.984375 C-12.06135818 53.91465515 -12.32193512 54.8449353 -12.59040833 55.80340576 C-14.00773023 60.61452245 -15.30668674 64.40458179 -19 68 C-19.66 68 -20.32 68 -21 68 C-21 67.34 -21 66.68 -21 66 C-23.475 66.99 -23.475 66.99 -26 68 C-24.97117472 65.59940769 -24.1812724 64.14622246 -22.1262207 62.48852539 C-18.94008001 58.7594713 -18.04063179 54.60293619 -16.73046875 49.93359375 C-16.44520828 48.94432388 -16.15994781 47.95505402 -15.86604309 46.93580627 C-15.2669911 44.84217802 -14.67483846 42.74656504 -14.08911133 40.64916992 C-13.19564036 37.46649716 -12.26831852 34.29508345 -11.33789062 31.12304688 C-10.75832167 29.0813227 -10.18078278 27.03902095 -9.60546875 24.99609375 C-9.32849655 24.05922226 -9.05152435 23.12235077 -8.76615906 22.15708923 C-7.13633785 16.18138769 -6.93950489 11.43428869 -7.98262024 5.31263733 C-8 3 -8 3 -6.69767761 1.19920349 C-4.40472577 -0.4204891 -2.74128338 -0.22226622 0 0 Z"/>
<path transform="translate(265,245)" fill="#1901E4" d="M0 0 C3.96 0 7.92 0 12 0 C12 6.6 12 13.2 12 20 C15.3 20.66 18.6 21.32 22 22 C22 22.66 22 23.32 22 24 C18.04 24.495 18.04 24.495 14 25 C13.67 25.99 13.34 26.98 13 28 C7.375 28.25 7.375 28.25 4 26 C4 25.01 4 24.02 4 23 C3.34 23 2.68 23 2 23 C0.22589949 17.68468311 -0.2577668 13.14381195 -0.125 7.5625 C-0.11597656 6.83095703 -0.10695313 6.09941406 -0.09765625 5.34570312 C-0.07436153 3.56365702 -0.0385019 1.78178241 0 0 Z"/>
<path transform="translate(82,193)" fill="#2110C0" d="M0 0 C9.59730518 -0.60508404 9.59730518 -0.60508404 14.1875 1.375 C17.01232244 5.46612216 16.78612655 9.18948249 16 14 C14.45197947 18.67549347 12.44339108 22.56330166 8 25 C4.71480525 26.09506492 2.26336585 26.09960608 -1.1875 26.0625 C-2.81751953 26.04896484 -2.81751953 26.04896484 -4.48046875 26.03515625 C-5.31191406 26.02355469 -6.14335938 26.01195312 -7 26 C-5.55993623 17.05870856 -2.79194029 8.58894609 0 0 Z M4 5 C1.91864693 10.29798964 0.28708387 15.45563871 -1 21 C3.68834753 20.67784051 3.68834753 20.67784051 7.8125 18.6875 C10.86058416 14.35601198 11.30476969 11.38426459 11 6 C9.87465895 4.64381501 9.87465895 4.64381501 6.9375 4.9375 C5.4834375 4.9684375 5.4834375 4.9684375 4 5 Z"/>
<path transform="translate(95.75,161.6875)" fill="#1F10BB" d="M0 0 C3.47559217 0.05477294 5.18184661 0.27978637 8.375 1.8125 C10.517386 4.66901467 10.8505239 6.60626182 10.60546875 10.15625 C9.7622499 15.27115996 8.50467922 19.08918776 4.75 22.75 C0.88286211 25.16696118 -1.96856773 25.42757567 -6.4375 25.375 C-7.43136719 25.36597656 -8.42523438 25.35695312 -9.44921875 25.34765625 C-10.58810547 25.33025391 -10.58810547 25.33025391 -11.75 25.3125 C-7.35358978 0.20668374 -7.35358978 0.20668374 0 0 Z M-1.75 5.3125 C-3.07 10.2625 -4.39 15.2125 -5.75 20.3125 C0.72592186 20.05591396 0.72592186 20.05591396 2.80859375 17.89453125 C4.79957151 13.88602936 5.7965179 10.90325032 5.25 6.3125 C4.92 5.9825 4.59 5.6525 4.25 5.3125 C2.27 5.3125 0.29 5.3125 -1.75 5.3125 Z"/>
<path transform="translate(269,164)" fill="#1B08CE" d="M0 0 C9.89914663 -0.61442979 9.89914663 -0.61442979 13.6875 1.5 C15.54509393 5.03827416 15.59130152 8.14211816 15 12 C13.34335181 17.23152061 11.61022737 20.02896459 7 23 C3.66796875 23.390625 3.66796875 23.390625 0.1875 23.25 C-0.97394531 23.21390625 -2.13539063 23.1778125 -3.33203125 23.140625 C-4.21246094 23.09421875 -5.09289062 23.0478125 -6 23 C-5.19152631 19.54071257 -4.37754006 16.08274571 -3.5625 12.625 C-3.33240234 11.64015625 -3.10230469 10.6553125 -2.86523438 9.640625 C-2.64287109 8.69960937 -2.42050781 7.75859375 -2.19140625 6.7890625 C-1.98717041 5.91975098 -1.78293457 5.05043945 -1.57250977 4.15478516 C-1 2 -1 2 0 0 Z M4 5 C3.46658816 6.57914015 2.94874237 8.16354387 2.4375 9.75 C2.14746094 10.63171875 1.85742188 11.5134375 1.55859375 12.421875 C0.98302565 15.07834316 1.10751629 16.47031106 2 19 C5.14158949 18.06601394 6.7325148 17.33205059 8.8125 14.75 C10.17268618 11.60009515 10.30888499 9.39773491 10 6 C8.93354885 4.70366379 8.93354885 4.70366379 6.4375 4.9375 C5.633125 4.958125 4.82875 4.97875 4 5 Z"/>
<path transform="translate(445,247)" fill="#1902E2" d="M0 0 C-0.33 0.99 -0.66 1.98 -1 3 C-1.66 3 -2.32 3 -3 3 C-3 3.66 -3 4.32 -3 5 C-6.3 5.66 -9.6 6.32 -13 7 C-13.33 7.99 -13.66 8.98 -14 10 C-12.68 10 -11.36 10 -10 10 C-10 11.32 -10 12.64 -10 14 C-11.45792884 14.05399736 -12.91642712 14.09279177 -14.375 14.125 C-15.59316406 14.15980469 -15.59316406 14.15980469 -16.8359375 14.1953125 C-19 14 -19 14 -21 12 C-23.57061311 11.35232207 -23.57061311 11.35232207 -26 11 C-26 10.01 -26 9.02 -26 8 C-26.66 8 -27.32 8 -28 8 C-28 6.35 -28 4.7 -28 3 C-19.22087167 -2.54888472 -9.73908991 -4.48250164 0 0 Z"/>
<path transform="translate(392,166)" fill="#2112AF" d="M0 0 C2 1 2 1 2.625 2.5625 C3.62301712 9.0496113 2.86302908 14.95097562 1.3125 21.25 C1.13460938 21.98581299 0.95671875 22.72162598 0.7734375 23.47973633 C-1.43820791 32.23766151 -4.44816782 40.78261817 -10 48 C-10.433125 48.5775 -10.86625 49.155 -11.3125 49.75 C-16.24061947 53.40045886 -22.16629869 53.20469127 -28 53 C-27.67 50.36 -27.34 47.72 -27 45 C-26.67 45 -26.34 45 -26 45 C-26 46.98 -26 48.96 -26 51 C-23.03 51 -20.06 51 -17 51 C-17 50.34 -17 49.68 -17 49 C-18.98 49 -20.96 49 -23 49 C-23 46.69 -23 44.38 -23 42 C-22.34 42 -21.68 42 -21 42 C-21.33 43.98 -21.66 45.96 -22 48 C-17.15643873 46.64380284 -14.64840767 45.1217805 -11.875 40.875 C-7.22330468 32.43211064 -4.7237841 22.43447428 -3 13 C-2.67 13 -2.34 13 -2 13 C-2.33 17.29 -2.66 21.58 -3 26 C-2.34 26 -1.68 26 -1 26 C-1 23.36 -1 20.72 -1 18 C-0.34 18 0.32 18 1 18 C0.67 12.06 0.34 6.12 0 0 Z"/>
<path transform="translate(212,244)" fill="#2511C8" d="M0 0 C12.21 0 24.42 0 37 0 C37 3.3 37 6.6 37 10 C33.37 10 29.74 10 26 10 C26 16.93 26 23.86 26 31 C21.38 31 16.76 31 12 31 C12 24.07 12 17.14 12 10 C8.04 10 4.08 10 0 10 C0 6.7 0 3.4 0 0 Z M1 1 C1 3.64 1 6.28 1 9 C4.63 9.33 8.26 9.66 12 10 C12.33 16.27 12.66 22.54 13 29 C16.63 29 20.26 29 24 29 C24.33 22.4 24.66 15.8 25 9 C24.01 8.67 23.02 8.34 22 8 C24 5 24 5 26.125 4.3125 C26.74375 4.209375 27.3625 4.10625 28 4 C27.34 5.32 26.68 6.64 26 8 C27.32 8 28.64 8 30 8 C30.77242269 6.16299211 30.77242269 6.16299211 31 4 C29.95090278 2.24730594 29.95090278 2.24730594 28 1 C25.09478296 0.58518419 25.09478296 0.58518419 21.80078125 0.70703125 C19.98803711 0.7215332 19.98803711 0.7215332 18.13867188 0.73632812 C16.2447168 0.7740332 16.2447168 0.7740332 14.3125 0.8125 C13.03826172 0.82603516 11.76402344 0.83957031 10.45117188 0.85351562 C7.30035943 0.88891801 4.15038955 0.9383021 1 1 Z"/>
<path transform="translate(230,215)" fill="#1C07CD" d="M0 0 C0.66 0.66 1.32 1.32 2 2 C1.2884375 2.6496875 1.2884375 2.6496875 0.5625 3.3125 C-1.23686957 5.02309613 -1.23686957 5.02309613 -2 8 C14.335 8.495 14.335 8.495 31 9 C30.34 7.02 29.68 5.04 29 3 C30.98 3.66 32.96 4.32 35 5 C35.1875 7.875 35.1875 7.875 35 11 C31.19656251 13.53562499 28.12494726 13.28836535 23.71875 13.265625 C22.9088562 13.26753845 22.0989624 13.2694519 21.26452637 13.27142334 C19.55313811 13.27278361 17.84173949 13.26909816 16.13037109 13.26074219 C13.50985552 13.25004025 10.89002548 13.2606426 8.26953125 13.2734375 C6.60676932 13.27211588 4.94400782 13.26955343 3.28125 13.265625 C2.49681519 13.26967346 1.71238037 13.27372192 0.9041748 13.27789307 C-2.9250538 13.24486246 -4.73815682 13.17456212 -8 11 C-8.5 8.125 -8.5 8.125 -8 5 C-5.399035 2.399035 -3.48886679 1.1629556 0 0 Z"/>
<path transform="translate(118,187)" fill="#2010C0" d="M0 0 C0 0.66 0 1.32 0 2 C-1.65 2 -3.3 2 -5 2 C-4.67 2.99 -4.34 3.98 -4 5 C-1.49552484 6.21869929 -1.49552484 6.21869929 1 7 C1 6.34 1 5.68 1 5 C4.39967601 6.40676249 6.08150488 7.8581948 8 11 C9.18808412 18.3960912 8.39209182 25.80947504 4 32 C0.26867633 35.69237457 -3.59754209 38.66234638 -9 39 C-9.33 38.34 -9.66 37.68 -10 37 C-10.99 36.34 -11.98 35.68 -13 35 C-11.1746875 34.4121875 -11.1746875 34.4121875 -9.3125 33.8125 C-4.61187856 32.048727 -1.50232229 29.50739707 1.109375 25.1484375 C2.74021775 21.214387 2.55461353 17.17312865 2 13 C-0.09450161 9.40942582 -2.13375348 7.51888256 -6 6 C-6 4.35 -6 2.7 -6 1 C-4 0 -4 0 0 0 Z"/>
<path transform="translate(180.81640625,152.8671875)" fill="#1905D9" d="M0 0 C0.77166 -0.00095673 1.54332001 -0.00191345 2.33836365 -0.00289917 C3.96996136 -0.00357996 5.60156178 -0.0017327 7.2331543 0.00244141 C9.73948196 0.00779837 12.245631 0.00248931 14.75195312 -0.00390625 C16.33463581 -0.00324559 17.91731839 -0.00196469 19.5 0 C20.25414688 -0.00202423 21.00829376 -0.00404846 21.78529358 -0.00613403 C27.06863751 0.01785626 27.06863751 0.01785626 28.18359375 1.1328125 C28.22423207 2.79898365 28.22631475 4.46669345 28.18359375 6.1328125 C27.52359375 6.1328125 26.86359375 6.1328125 26.18359375 6.1328125 C26.18359375 7.1228125 26.18359375 8.1128125 26.18359375 9.1328125 C25.19359375 9.1328125 24.20359375 9.1328125 23.18359375 9.1328125 C23.18359375 7.8128125 23.18359375 6.4928125 23.18359375 5.1328125 C13.61359375 5.1328125 4.04359375 5.1328125 -5.81640625 5.1328125 C-5.81640625 8.7628125 -5.81640625 12.3928125 -5.81640625 16.1328125 C-6.47640625 16.1328125 -7.13640625 16.1328125 -7.81640625 16.1328125 C-9.28310738 10.90768971 -10.04218027 6.5513891 -9.81640625 1.1328125 C-6.70690096 -0.42194014 -3.41193595 -0.00918274 0 0 Z"/>
<path transform="translate(187.453125,261.046875)" fill="#1F09D2" d="M0 0 C1.25296875 0.23203125 2.5059375 0.4640625 3.796875 0.703125 C5.69179687 1.03570312 5.69179687 1.03570312 7.625 1.375 C9.07132813 1.66117187 9.07132813 1.66117187 10.546875 1.953125 C8.95081633 7.40381594 7.2808516 9.67575658 2.546875 12.953125 C-2.73745559 15.53384459 -8.67374091 15.57007652 -14.453125 14.953125 C-15.443125 14.293125 -16.433125 13.633125 -17.453125 12.953125 C-14.813125 12.623125 -12.173125 12.293125 -9.453125 11.953125 C-9.123125 10.963125 -8.793125 9.973125 -8.453125 8.953125 C-6.390625 8.265625 -6.390625 8.265625 -4.453125 7.953125 C-5.443125 7.293125 -6.433125 6.633125 -7.453125 5.953125 C-7.453125 3.953125 -7.453125 3.953125 -5.90625 1.78125 C-3.453125 -0.046875 -3.453125 -0.046875 0 0 Z"/>
<path transform="translate(170,156)" fill="#200DC8" d="M0 0 C0.33 0 0.66 0 1 0 C2.45184478 4.53701494 3.23509196 8.18061476 3 13 C3.66 13 4.32 13 5 13 C5 10.03 5 7.06 5 4 C5.66 4.66 6.32 5.32 7 6 C6.78001043 14.79001792 3.87104784 23.17698846 1.4375 31.5625 C1.00780103 33.06296147 0.57875898 34.56361123 0.15039062 36.06445312 C-0.89217501 39.71185137 -1.94360957 43.35658294 -3 47 C-3.33 47 -3.66 47 -4 47 C-4.33 45.02 -4.66 43.04 -5 41 C-5.99 43.475 -5.99 43.475 -7 46 C-8.56579879 42.01449874 -7.36888785 39.17744563 -6.09375 35.21484375 C-5.67524014 33.86540207 -5.25728987 32.51578675 -4.83984375 31.16601562 C-4.1758551 29.05964456 -3.50587424 26.95561755 -2.82470703 24.85473633 C-0.08527519 16.34760283 1.83694848 8.99557475 0 0 Z"/>
<path transform="translate(78.0546875,152.6015625)" fill="#1804D8" d="M0 0 C0.86037872 -0.00287018 1.72075745 -0.00574036 2.60720825 -0.00869751 C4.4209255 -0.01073186 6.23466501 -0.00524612 8.04833984 0.00732422 C10.80486894 0.02334773 13.55992318 0.00747476 16.31640625 -0.01171875 C18.0859407 -0.00973544 19.85547424 -0.00588995 21.625 0 C22.84725784 -0.00910904 22.84725784 -0.00910904 24.09420776 -0.0184021 C29.66711419 0.04908773 33.82383741 1.18783938 38.9453125 3.3984375 C38.9453125 3.7284375 38.9453125 4.0584375 38.9453125 4.3984375 C38.29385254 4.39320068 37.64239258 4.38796387 36.97119141 4.38256836 C20.26830031 4.26748652 3.63023075 4.62258674 -13.0546875 5.3984375 C-12.8484375 6.3471875 -12.6421875 7.2959375 -12.4296875 8.2734375 C-12.3059375 9.3046875 -12.1821875 10.3359375 -12.0546875 11.3984375 C-12.7146875 12.0584375 -13.3746875 12.7184375 -14.0546875 13.3984375 C-15.0546875 5.6484375 -15.0546875 5.6484375 -15.0546875 3.3984375 C-9.88300578 0.26430501 -5.85984291 -0.04345535 0 0 Z"/>
<path transform="translate(79,244)" fill="#2612BD" d="M0 0 C9.57 0 19.14 0 29 0 C29 0.33 29 0.66 29 1 C20.09 1 11.18 1 2 1 C2 10.24 2 19.48 2 29 C4.31 29 6.62 29 9 29 C9 27.35 9 25.7 9 24 C9.99 23.67 10.98 23.34 12 23 C12.61294922 21.98679687 12.61294922 21.98679687 13.23828125 20.953125 C15 19 15 19 18.35546875 18.609375 C19.62003906 18.65578125 20.88460937 18.7021875 22.1875 18.75 C23.45980469 18.78609375 24.73210937 18.8221875 26.04296875 18.859375 C27.01878906 18.90578125 27.99460937 18.9521875 29 19 C29 18.34 29 17.68 29 17 C30.65 17 32.3 17 34 17 C31.94766315 19.2477975 30.99332739 20.0022242 28 21 C25.77181559 21.06937062 23.54165476 21.08457084 21.3125 21.0625 C19.54326172 21.04896484 19.54326172 21.04896484 17.73828125 21.03515625 C16.83464844 21.02355469 15.93101563 21.01195312 15 21 C15 24.3 15 27.6 15 31 C10.05 31 5.1 31 0 31 C0 20.77 0 10.54 0 0 Z"/>
<path transform="translate(249,153)" fill="#1703DB" d="M0 0 C5.23274388 -0.02467917 10.46545403 -0.04285003 15.69824219 -0.05493164 C17.47917267 -0.05996711 19.260099 -0.06679581 21.04101562 -0.07543945 C23.59766665 -0.08753942 26.15426312 -0.09323609 28.7109375 -0.09765625 C29.50994476 -0.10281754 30.30895203 -0.10797882 31.13217163 -0.11329651 C36.77225659 -0.11387171 36.77225659 -0.11387171 39 1 C40.53668865 1.22467831 42.07968054 1.40796805 43.625 1.5625 C44.44226563 1.64628906 45.25953125 1.73007813 46.1015625 1.81640625 C46.72804688 1.87699219 47.35453125 1.93757812 48 2 C48 2.66 48 3.32 48 4 C41.64627481 4.050652 35.29260156 4.08571322 28.9387207 4.10986328 C26.77659153 4.11992951 24.614476 4.13358354 22.45239258 4.15087891 C19.34713375 4.17509978 16.2420547 4.18647681 13.13671875 4.1953125 C12.16788254 4.20563507 11.19904633 4.21595764 10.20085144 4.22659302 C9.3001442 4.22674408 8.39943695 4.22689514 7.47143555 4.22705078 C6.28229805 4.23371262 6.28229805 4.23371262 5.06913757 4.24050903 C3 4 3 4 0 2 C0 1.34 0 0.68 0 0 Z"/>
<path transform="translate(348.3125,247.25)" fill="#1901E7" d="M0 0 C2.80895007 1.82908377 3.86074051 2.53482422 4.6875 5.75 C4.60165622 9.78465772 3.95921168 11.41953985 1.375 14.5625 C-1.04830253 16.53495555 -2.27219029 17.41218781 -5.3125 17.75 C-4.6525 16.43 -3.9925 15.11 -3.3125 13.75 C-2.6525 13.75 -1.9925 13.75 -1.3125 13.75 C-1.3125 12.76 -1.3125 11.77 -1.3125 10.75 C-2.3025 11.08 -3.2925 11.41 -4.3125 11.75 C-6.3125 9.75 -6.3125 9.75 -6.75 7.75 C-7.18708708 5.36359262 -7.18708708 5.36359262 -10.3125 3.75 C-10.3125 3.09 -10.3125 2.43 -10.3125 1.75 C-11.9625 2.08 -13.6125 2.41 -15.3125 2.75 C-12.41197936 -3.05104127 -5.16733567 -1.94993799 0 0 Z"/>
<path transform="translate(109,153)" fill="#1D0CBB" d="M0 0 C6.86867516 -0.36796474 12.45651075 0.18052427 17.98828125 4.58203125 C22.64014464 9.00274615 24.91000224 12.25506833 25.125 18.8125 C25.08375 19.864375 25.0425 20.91625 25 22 C24.67 22 24.34 22 24 22 C23.34 19.36 22.68 16.72 22 14 C21.01 14.33 20.02 14.66 19 15 C17.92578125 13.53515625 16.8515625 12.0703125 15.77734375 10.60546875 C9.69055685 5.10729421 1.83378289 5.29406329 -5.9375 4.8125 C-7.09830078 4.73064453 -8.25910156 4.64878906 -9.45507812 4.56445312 C-12.30281939 4.36522843 -15.1508309 4.17741612 -18 4 C-18 3.67 -18 3.34 -18 3 C-9.75 3 -1.5 3 7 3 C4.69 2.34 2.38 1.68 0 1 C0 0.67 0 0.34 0 0 Z"/>
<path transform="translate(430,264)" fill="#1F0DC4" d="M0 0 C1.8125 1.5 1.8125 1.5 3 3 C2.01 3 1.02 3 0 3 C-0.33 3.99 -0.66 4.98 -1 6 C-1.99 5.34 -2.98 4.68 -4 4 C-5.98 4.99 -5.98 4.99 -8 6 C-7.01 6.33 -6.02 6.66 -5 7 C-5 7.66 -5 8.32 -5 9 C-1.535 8.505 -1.535 8.505 2 8 C2 8.66 2 9.32 2 10 C4.97 10.33 7.94 10.66 11 11 C11.66 9.35 12.32 7.7 13 6 C13.92232422 6.03480469 13.92232422 6.03480469 14.86328125 6.0703125 C16.07564453 6.09738281 16.07564453 6.09738281 17.3125 6.125 C18.51326172 6.15980469 18.51326172 6.15980469 19.73828125 6.1953125 C22.28388576 6.15817322 22.28388576 6.15817322 25 4 C23.5404114 7.8480063 21.66100886 9.21206544 18 11 C9.3873868 13.11307769 0.02834995 13.00568835 -8 9 C-10.5625 7 -10.5625 7 -12 5 C-12 4.01 -12 3.02 -12 2 C-3.89891697 -0.54151625 -3.89891697 -0.54151625 0 0 Z"/>
<path transform="translate(269,164)" fill="#210EC1" d="M0 0 C9.89914663 -0.61442979 9.89914663 -0.61442979 13.6875 1.5 C15.54509393 5.03827416 15.59130152 8.14211816 15 12 C13.38843821 17.08914248 11.67387618 20.26407248 7 23 C4.6875 22.75 4.6875 22.75 3 22 C3.66 22 4.32 22 5 22 C5 21.01 5 20.02 5 19 C4.01 18.67 3.02 18.34 2 18 C2.78375 17.7525 3.5675 17.505 4.375 17.25 C7.03842531 16.23091016 7.03842531 16.23091016 8.3125 14.25 C9.17450101 11.42890579 9.13329111 8.93240449 9 6 C7.35 5.67 5.7 5.34 4 5 C4 4.67 4 4.34 4 4 C5.98 4 7.96 4 10 4 C10 3.01 10 2.02 10 1 C6.7 1.33 3.4 1.66 0 2 C0 1.34 0 0.68 0 0 Z"/>
<path transform="translate(344,190)" fill="#200EC6" d="M0 0 C0.33 0 0.66 0 1 0 C1 1.65 1 3.3 1 5 C1.99 4.67 2.98 4.34 4 4 C0.76595745 22.85106383 0.76595745 22.85106383 -4 30 C-4.66 29.67 -5.32 29.34 -6 29 C-5.34 28.01 -4.68 27.02 -4 26 C-4.78375 26.515625 -5.5675 27.03125 -6.375 27.5625 C-7.24125 28.036875 -8.1075 28.51125 -9 29 C-9.66 28.67 -10.32 28.34 -11 28 C-10.06945801 27.18450684 -10.06945801 27.18450684 -9.12011719 26.35253906 C-6.72084465 23.69024171 -6.02764409 21.79225169 -5.078125 18.359375 C-4.77519531 17.28945312 -4.47226562 16.21953125 -4.16015625 15.1171875 C-3.70962891 13.45042969 -3.70962891 13.45042969 -3.25 11.75 C-2.93417969 10.62335938 -2.61835938 9.49671875 -2.29296875 8.3359375 C-1.51674766 5.56035907 -0.75294634 2.78196533 0 0 Z"/>
<path transform="translate(95,195)" fill="#2110BD" d="M0 0 C3 2 3 2 3.43359375 4.1015625 C3.44296927 10.15814564 2.70066033 15.05436444 -1 20 C-3.41036517 22.35656238 -4.62089731 22.96317008 -8.015625 23.29296875 C-9.08296875 23.25816406 -10.1503125 23.22335938 -11.25 23.1875 C-12.86648437 23.14689453 -12.86648437 23.14689453 -14.515625 23.10546875 C-15.74539062 23.05326172 -15.74539062 23.05326172 -17 23 C-17.33 21.68 -17.66 20.36 -18 19 C-17.01 18.67 -16.02 18.34 -15 18 C-15 18.66 -15 19.32 -15 20 C-9.555 19.01 -9.555 19.01 -4 18 C-2.90493508 14.71480525 -2.90039392 12.26336585 -2.9375 8.8125 C-2.95103516 7.18248047 -2.95103516 7.18248047 -2.96484375 5.51953125 C-2.98224609 4.27236328 -2.98224609 4.27236328 -3 3 C-2.34 3 -1.68 3 -1 3 C-0.87625 3.639375 -0.7525 4.27875 -0.625 4.9375 C-0.41875 5.618125 -0.2125 6.29875 0 7 C0.66 7.33 1.32 7.66 2 8 C1.34 5.36 0.68 2.72 0 0 Z"/>
<path transform="translate(328,245)" fill="#220DCC" d="M0 0 C3.41637953 -0.11632513 6.83224897 -0.18728897 10.25 -0.25 C11.70212891 -0.30027344 11.70212891 -0.30027344 13.18359375 -0.3515625 C20.37783066 -0.45079335 20.37783066 -0.45079335 23.609375 1.890625 C25.98464523 5.49356299 26.09371969 7.68889447 26 12 C24.98555521 9.97111042 23.99841161 7.99584575 23.1875 5.875 C21.49548113 3.20339126 20.03303673 2.80880979 17 2 C11.95515604 1.5495675 9.11377922 2.00816057 5 5 C6.65 4.67 8.3 4.34 10 4 C10 4.66 10 5.32 10 6 C11.32 6.66 12.64 7.32 14 8 C13.67 9.32 13.34 10.64 13 12 C9.37 12 5.74 12 2 12 C1.90234375 5.06640625 1.90234375 5.06640625 2 3 C2.33 2.67 2.66 2.34 3 2 C2.01 1.34 1.02 0.68 0 0 Z M3 8 C3 8.99 3 9.98 3 11 C5.97 11 8.94 11 12 11 C12 10.01 12 9.02 12 8 C9.03 8 6.06 8 3 8 Z"/>
<path transform="translate(333,220)" fill="#1901E5" d="M0 0 C0.66 0 1.32 0 2 0 C2 1.32 2 2.64 2 4 C16.19 4.33 30.38 4.66 45 5 C45 5.66 45 6.32 45 7 C38.75204325 7.02527124 32.50409959 7.04283344 26.25610352 7.05493164 C24.12881986 7.05997298 22.00153969 7.06680591 19.87426758 7.07543945 C16.82372174 7.08751379 13.77322155 7.09323014 10.72265625 7.09765625 C9.28672874 7.10539818 9.28672874 7.10539818 7.8217926 7.11329651 C6.94095505 7.11337204 6.06011749 7.11344757 5.15258789 7.11352539 C4.37315323 7.115746 3.59371857 7.11796661 2.79066467 7.12025452 C1 7 1 7 0 6 C-0.04080783 4.00041636 -0.04254356 1.99954746 0 0 Z"/>
<path transform="translate(382,164)" fill="#1F09CE" d="M0 0 C2.97 0 5.94 0 9 0 C11.18648367 4.37296734 11.23362071 7.5208216 11.125 12.25 C11.11597656 12.99507812 11.10695313 13.74015625 11.09765625 14.5078125 C11.07418358 16.33868059 11.03831525 18.16938238 11 20 C10.34 20 9.68 20 9 20 C9 22.64 9 25.28 9 28 C8.34 28 7.68 28 7 28 C7.01571045 27.37955811 7.0314209 26.75911621 7.04760742 26.11987305 C7.10996214 23.30917472 7.14899148 20.49862188 7.1875 17.6875 C7.21263672 16.71103516 7.23777344 15.73457031 7.26367188 14.72851562 C7.27333984 13.79072266 7.28300781 12.85292969 7.29296875 11.88671875 C7.3086792 11.02264404 7.32438965 10.15856934 7.34057617 9.26831055 C6.92668958 6.51173687 6.18661671 5.67204105 4 4 C1.89667109 3.28552357 1.89667109 3.28552357 0 3 C0 2.01 0 1.02 0 0 Z"/>
<path transform="translate(368,153)" fill="#1603DA" d="M0 0 C2.95839355 -0.02689449 5.91654427 -0.04678741 8.875 -0.0625 C9.71675781 -0.07087891 10.55851562 -0.07925781 11.42578125 -0.08789062 C12.23144531 -0.09111328 13.03710938 -0.09433594 13.8671875 -0.09765625 C14.98262939 -0.10551147 14.98262939 -0.10551147 16.12060547 -0.11352539 C18 0 18 0 20 1 C21.87056791 1.2275015 23.74685958 1.40962811 25.625 1.5625 C26.62789063 1.64628906 27.63078125 1.73007813 28.6640625 1.81640625 C29.43492187 1.87699219 30.20578125 1.93757812 31 2 C27.40735167 4.24734928 24.44857927 4.23200508 20.265625 4.1953125 C18.97011719 4.18886719 17.67460937 4.18242187 16.33984375 4.17578125 C14.97655981 4.15907193 13.61327856 4.14214206 12.25 4.125 C10.87110015 4.1149634 9.49219335 4.10583873 8.11328125 4.09765625 C4.74201118 4.07408093 1.37109364 4.0411727 -2 4 C-1.34 2.68 -0.68 1.36 0 0 Z"/>
<path transform="translate(264,244)" fill="#2919B7" d="M0 0 C4.95 0 9.9 0 15 0 C15.33 6.6 15.66 13.2 16 20 C15.34 20 14.68 20 14 20 C14 13.73 14 7.46 14 1 C9.71 1 5.42 1 1 1 C1.14021805 3.64624284 1.28689776 6.29184578 1.4375 8.9375 C1.47681641 9.69224609 1.51613281 10.44699219 1.55664062 11.22460938 C1.44038024 14.91944187 1.44038024 14.91944187 3 18 C3.04080783 19.99958364 3.04254356 22.00045254 3 24 C3.66 24 4.32 24 5 24 C5 24.99 5 25.98 5 27 C11.32837252 29.43046191 17.23784552 30.59060025 24 31 C24 31.33 24 31.66 24 32 C15.97338248 32.39189633 10.14459491 32.36048236 3.6875 27.125 C-0.61773609 21.70359159 -0.24664983 16.3080583 -0.125 9.6875 C-0.11597656 8.75615234 -0.10695313 7.82480469 -0.09765625 6.86523438 C-0.07418422 4.57671177 -0.03831609 2.28832221 0 0 Z"/>
<path transform="translate(131,244)" fill="#2818B6" d="M0 0 C4.62 0 9.24 0 14 0 C14 10.23 14 20.46 14 31 C9.38 31 4.76 31 0 31 C0.495 29.515 0.495 29.515 1 28 C1 28.66 1 29.32 1 30 C4.63 30 8.26 30 12 30 C12 20.76 12 11.52 12 2 C8.04 1.67 4.08 1.34 0 1 C0 0.67 0 0.34 0 0 Z"/>
<path transform="translate(360.1875,152.75)" fill="#1B09B5" d="M0 0 C0.74958984 0.01804688 1.49917969 0.03609375 2.27148438 0.0546875 C4.1190371 0.10175891 5.96593159 0.17350234 7.8125 0.25 C7.2265625 2.203125 7.2265625 2.203125 5.8125 4.25 C2.7734375 4.859375 2.7734375 4.859375 -0.8125 5 C-2.59527344 5.08507812 -2.59527344 5.08507812 -4.4140625 5.171875 C-5.32929688 5.19765625 -6.24453125 5.2234375 -7.1875 5.25 C-7.1875 6.57 -7.1875 7.89 -7.1875 9.25 C-8.1775 9.58 -9.1675 9.91 -10.1875 10.25 C-11.50708763 4.97164948 -11.50708763 4.97164948 -10.21875 2.0625 C-7.13279846 -0.6911183 -3.91263531 -0.17769173 0 0 Z"/>
<path transform="translate(445,257)" fill="#1C07D5" d="M0 0 C4.12796115 0.2381516 6.34632633 0.39660892 9.4375 3.25 C11.14441974 6.25417874 11.79840427 7.62895974 11 11 C8.5 12.8125 8.5 12.8125 6 14 C5.67 13.01 5.34 12.02 5 11 C3.68 10.67 2.36 10.34 1 10 C1.99 7.36 2.98 4.72 4 2 C2.68 2 1.36 2 0 2 C0 1.34 0 0.68 0 0 Z"/>
<path transform="translate(297,213)" fill="#2413BB" d="M0 0 C1.98 0.66 3.96 1.32 6 2 C5.67 4.31 5.34 6.62 5 9 C5.99 8.67 6.98 8.34 8 8 C6.54163185 11.84478875 4.63541701 13.1822915 1 15 C-2.83833767 16.32110227 -6.74314263 16.1117336 -10.75 16.0625 C-11.44738281 16.05798828 -12.14476562 16.05347656 -12.86328125 16.04882812 C-14.57555803 16.0371002 -16.28779033 16.01916653 -18 16 C-18 15.67 -18 15.34 -18 15 C-11.95170514 14.10395632 -6.1105424 13.88730557 0 14 C0 13.34 0 12.68 0 12 C-3.3 12 -6.6 12 -10 12 C-10 11.67 -10 11.34 -10 11 C-9.32453125 10.89042969 -8.6490625 10.78085938 -7.953125 10.66796875 C-7.06109375 10.50941406 -6.1690625 10.35085937 -5.25 10.1875 C-4.36828125 10.03667969 -3.4865625 9.88585937 -2.578125 9.73046875 C0.24631156 8.93021173 1.85769972 7.99272526 4 6 C4.33 5.01 4.66 4.02 5 3 C2.525 2.505 2.525 2.505 0 2 C0 1.34 0 0.68 0 0 Z"/>
<path transform="translate(246.1875,152.75)" fill="#1904DC" d="M0 0 C0.928125 0.0825 1.85625 0.165 2.8125 0.25 C2.8125 0.91 2.8125 1.57 2.8125 2.25 C3.8025 2.58 4.7925 2.91 5.8125 3.25 C2.8125 5.25 2.8125 5.25 -1.1875 5.25 C-1.1875 9.87 -1.1875 14.49 -1.1875 19.25 C-1.8475 19.25 -2.5075 19.25 -3.1875 19.25 C-3.85416667 15.91666667 -4.52083333 12.58333333 -5.1875 9.25 C-5.39632812 8.363125 -5.60515625 7.47625 -5.8203125 6.5625 C-6.1875 4.25 -6.1875 4.25 -5.125 1.9375 C-3.1875 0.25 -3.1875 0.25 0 0 Z"/>
<path transform="translate(170,156)" fill="#2413B8" d="M0 0 C0.33 0 0.66 0 1 0 C2.45184478 4.53701494 3.23509196 8.18061476 3 13 C3.66 13 4.32 13 5 13 C5 10.03 5 7.06 5 4 C5.66 4.66 6.32 5.32 7 6 C6.6687726 12.95577549 4.97762094 19.34574085 3 26 C2.67 26 2.34 26 2 26 C2 24.02 2 22.04 2 20 C1.34 20 0.68 20 0 20 C-0.33 21.65 -0.66 23.3 -1 25 C-2.18664342 21.57278644 -1.77850356 19.78255025 -0.5 16.4375 C1.37448503 10.74619024 0.92270329 5.84749312 0 0 Z"/>
<path transform="translate(273,221)" fill="#1C08D0" d="M0 0 C0.81082031 0.20496094 1.62164062 0.40992188 2.45703125 0.62109375 C9.6486644 2.37086247 16.61017396 3.57053115 24 4 C24 4.66 24 5.32 24 6 C5.7599278 8.1732852 5.7599278 8.1732852 1 5 C0.3125 2.375 0.3125 2.375 0 0 Z"/>
<path transform="translate(191,221)" fill="#1A02E2" d="M0 0 C0 1.65 0 3.3 0 5 C-3.47782583 6.15927528 -6.18803257 6.11313066 -9.85546875 6.09765625 C-10.84792351 6.09553383 -10.84792351 6.09553383 -11.86042786 6.09336853 C-13.96949828 6.08777996 -16.07846177 6.07522965 -18.1875 6.0625 C-19.61913909 6.05748352 -21.05077985 6.05292087 -22.48242188 6.04882812 C-25.98831588 6.0378143 -29.4941475 6.02055755 -33 6 C-33 5.34 -33 4.68 -33 4 C-32.17274414 3.98541748 -31.34548828 3.97083496 -30.49316406 3.95581055 C-26.74497119 3.8813414 -22.99767003 3.7846754 -19.25 3.6875 C-17.94804687 3.66494141 -16.64609375 3.64238281 -15.3046875 3.61914062 C-13.42910156 3.5659668 -13.42910156 3.5659668 -11.515625 3.51171875 C-10.36352539 3.48553467 -9.21142578 3.45935059 -8.02441406 3.43237305 C-5.0161674 3.00231131 -2.50664075 0 0 0 Z"/>
<path transform="translate(118,187)" fill="#2516B8" d="M0 0 C0 0.66 0 1.32 0 2 C-1.65 2 -3.3 2 -5 2 C-4.67 2.99 -4.34 3.98 -4 5 C-1.49552484 6.21869929 -1.49552484 6.21869929 1 7 C1 6.34 1 5.68 1 5 C4.39939744 6.40664722 6.11569631 7.83094379 8 11 C8.29296875 14.015625 8.29296875 14.015625 8.1875 17.25 C8.16042969 18.32765625 8.13335937 19.4053125 8.10546875 20.515625 C8.07066406 21.33546875 8.03585938 22.1553125 8 23 C7.67 23 7.34 23 7 23 C6.81824219 21.60974609 6.81824219 21.60974609 6.6328125 20.19140625 C6.46523437 18.99386719 6.29765625 17.79632813 6.125 16.5625 C5.96257812 15.36753906 5.80015625 14.17257813 5.6328125 12.94140625 C5.42398438 11.97074219 5.21515625 11.00007812 5 10 C4.34 9.67 3.68 9.34 3 9 C3.33 9.99 3.66 10.98 4 12 C4.06740865 13.56118428 4.08514456 15.1250252 4.0625 16.6875 C4.05347656 17.49574219 4.04445313 18.30398437 4.03515625 19.13671875 C4.02355469 19.75160156 4.01195313 20.36648437 4 21 C3.67 21 3.34 21 3 21 C2.89042969 20.31292969 2.78085938 19.62585938 2.66796875 18.91796875 C2.50941406 18.01691406 2.35085937 17.11585938 2.1875 16.1875 C2.03667969 15.29417969 1.88585937 14.40085938 1.73046875 13.48046875 C0.93366885 10.77475787 0.17538598 9.74030878 -2 8 C-4.09989652 6.82425289 -4.09989652 6.82425289 -6 6 C-6 4.35 -6 2.7 -6 1 C-4 0 -4 0 0 0 Z"/>
<path transform="translate(258,204)" fill="#2113BE" d="M0 0 C0.33 0 0.66 0 1 0 C1 2.31 1 4.62 1 7 C1.66 7 2.32 7 3 7 C3.33 5.02 3.66 3.04 4 1 C5.03391962 4.10175885 4.95666024 5.41258221 4.5 8.5625 C3.92681056 11.90069837 3.92681056 11.90069837 5 15 C3.68 14.67 2.36 14.34 1 14 C1.99 15.485 1.99 15.485 3 17 C3 17.99 3 18.98 3 20 C0.10619861 18.5530993 -0.61162304 16.90297 -2 14 C-2.47657898 8.85294697 -1.5774393 4.83090786 0 0 Z"/>
<path transform="translate(78,205)" fill="#2718B3" d="M0 0 C0.33 0 0.66 0 1 0 C1 2.31 1 4.62 1 7 C1.66 7 2.32 7 3 7 C3.33 6.01 3.66 5.02 4 4 C4 5.32 4 6.64 4 8 C6.64 7.67 9.28 7.34 12 7 C12.66 5.02 13.32 3.04 14 1 C14.75 2.75 14.75 2.75 15 5 C13.14944202 7.23343204 11.59616917 8.70191542 9 10 C6.6670134 10.04022391 4.33293334 10.04320247 2 10 C2 9.34 2 8.68 2 8 C1.01 8.495 1.01 8.495 0 9 C0 9.99 0 10.98 0 12 C2.97 12.33 5.94 12.66 9 13 C9 13.33 9 13.66 9 14 C5.04 14 1.08 14 -3 14 C-0.99107143 3.82142857 -0.99107143 3.82142857 0 0 Z"/>
<path transform="translate(417,165)" fill="#2212B7" d="M0 0 C2.2477975 2.05233685 3.0022242 3.00667261 4 6 C4.12255168 8.8243887 4.18512869 11.61326762 4.1875 14.4375 C4.19974609 15.20126953 4.21199219 15.96503906 4.22460938 16.75195312 C4.22654297 17.49251953 4.22847656 18.23308594 4.23046875 18.99609375 C4.23457764 19.66825928 4.23868652 20.3404248 4.24291992 21.03295898 C4 23 4 23 2 27 C2 19.74 2 12.48 2 5 C1.34 5 0.68 5 0 5 C0 7.64 0 10.28 0 13 C-0.33 13 -0.66 13 -1 13 C-1.33 10.03 -1.66 7.06 -2 4 C-1.34 4 -0.68 4 0 4 C0 2.68 0 1.36 0 0 Z"/>
<path transform="translate(310,171)" fill="#200EBC" d="M0 0 C0.66 0 1.32 0 2 0 C1.061859 6.95904593 -0.35031565 11.65286299 -5 17 C-5.66 17 -6.32 17 -7 17 C-7 16.01 -7 15.02 -7 14 C-7.99 13.67 -8.98 13.34 -10 13 C-9.01 12.67 -8.02 12.34 -7 12 C-5.97718482 9.90280128 -5.97718482 9.90280128 -5.3125 7.4375 C-5.06113281 6.61121094 -4.80976563 5.78492188 -4.55078125 4.93359375 C-4.36902344 4.29550781 -4.18726563 3.65742188 -4 3 C-3.67 3 -3.34 3 -3 3 C-2.875 8.75 -2.875 8.75 -4 11 C-3.34 11 -2.68 11 -2 11 C-1.34 7.37 -0.68 3.74 0 0 Z"/>
<path transform="translate(199,164)" fill="#2413BE" d="M0 0 C1.07310858 3.27185553 0.89263102 5.42947592 0.0625 8.75 C-0.13214844 9.54921875 -0.32679688 10.3484375 -0.52734375 11.171875 C-0.76130859 12.07679688 -0.76130859 12.07679688 -1 13 C-0.01 12.01 0.98 11.02 2 10 C1.71715982 11.77226453 1.42339502 13.542788 1.125 15.3125 C0.96257812 16.29863281 0.80015625 17.28476563 0.6328125 18.30078125 C0 21 0 21 -2 24 C-5.32289554 17.79726166 -5.32289554 17.79726166 -4.65454102 14.07714844 C-4.43983154 13.4277832 -4.22512207 12.77841797 -4.00390625 12.109375 C-3.77509766 11.40039062 -3.54628906 10.69140625 -3.31054688 9.9609375 C-3.06369141 9.23132813 -2.81683594 8.50171875 -2.5625 7.75 C-2.19801758 6.63238281 -2.19801758 6.63238281 -1.82617188 5.4921875 C-1.22667019 3.65841765 -0.61455513 1.82877996 0 0 Z"/>
<path transform="translate(369,208)" fill="#2313B4" d="M0 0 C0.66 0 1.32 0 2 0 C1.67 1.98 1.34 3.96 1 6 C2.98 5.67 4.96 5.34 7 5 C7 5.66 7 6.32 7 7 C8.65 6.67 10.3 6.34 12 6 C9.35954494 9.9606826 7.59830543 10.03583918 3 11 C0.30623587 11.14573593 -2.29861027 11.0947856 -5 11 C-4.67 8.36 -4.34 5.72 -4 3 C-3.67 3 -3.34 3 -3 3 C-3 4.98 -3 6.96 -3 9 C-0.03 9 2.94 9 6 9 C6 8.34 6 7.68 6 7 C4.02 7 2.04 7 0 7 C0 4.69 0 2.38 0 0 Z"/>
<path transform="translate(91,211)" fill="#1A02DF" d="M0 0 C0.66 0 1.32 0 2 0 C1.38722388 2.96175123 0.74627478 4.38058783 -1 7 C-3.8203125 7.29296875 -3.8203125 7.29296875 -7.125 7.1875 C-8.76855469 7.14689453 -8.76855469 7.14689453 -10.4453125 7.10546875 C-11.70988281 7.05326172 -11.70988281 7.05326172 -13 7 C-13.33 5.68 -13.66 4.36 -14 3 C-13.01 2.67 -12.02 2.34 -11 2 C-11 2.66 -11 3.32 -11 4 C-5.555 3.01 -5.555 3.01 0 2 C0 1.34 0 0.68 0 0 Z"/>
<path transform="translate(352,257)" fill="#2414AF" d="M0 0 C1 3 1 3 0 6 C0.309375 6.7425 0.61875 7.485 0.9375 8.25 C2.23961555 11.62018141 2.14047634 14.41785339 2 18 C-2.29 18 -6.58 18 -11 18 C-11.45572917 15.72135417 -11.91145833 13.44270833 -12.3671875 11.1640625 C-12.86658932 8.81326077 -12.86658932 8.81326077 -15 7 C-12.525 7.495 -12.525 7.495 -10 8 C-10 10.97 -10 13.94 -10 17 C-6.37 17 -2.74 17 1 17 C0.505 15.4325 0.01 13.865 -0.5 12.25 C-1.57302699 8.8520812 -2 6.63361578 -2 3 C-1.34 2.01 -0.68 1.02 0 0 Z"/>
<path transform="translate(263,195)" fill="#1B09CD" d="M0 0 C1.32 0.66 2.64 1.32 4 2 C3.01 2.33 2.02 2.66 1 3 C1 5.31 1 7.62 1 10 C0.34 10 -0.32 10 -1 10 C-1.33 11.98 -1.66 13.96 -2 16 C-2.66 16 -3.32 16 -4 16 C-4.02705729 14.22925083 -4.04642195 12.45838289 -4.0625 10.6875 C-4.07410156 9.70136719 -4.08570313 8.71523437 -4.09765625 7.69921875 C-4 5 -4 5 -3 2 C-2.01 1.34 -1.02 0.68 0 0 Z"/>
<path transform="translate(416,252)" fill="#1F0EBC" d="M0 0 C0.33 0.99 0.66 1.98 1 3 C1.66 3 2.32 3 3 3 C3.99 4.485 3.99 4.485 5 6 C6.90233881 6.6398061 6.90233881 6.6398061 9 7 C10.29795257 7.48344792 11.5897134 7.98382064 12.875 8.5 C16.22685821 9.78676205 19.42334252 10.55291782 23 11 C23 11.33 23 11.66 23 12 C6.27044025 11.27044025 6.27044025 11.27044025 1.0625 6.0625 C0 4 0 4 0 0 Z"/>
<path transform="translate(409,159)" fill="#1A08CB" d="M0 0 C2.67349715 0.28142075 4.55305094 0.70717131 6.8125 2.1875 C8.51995571 4.79361661 8.20267097 6.9599355 8 10 C5.29561004 9.63594751 4.25593617 9.31857318 2.515625 7.15234375 C1.88914062 6.05599609 1.88914062 6.05599609 1.25 4.9375 C0.82203125 4.20402344 0.3940625 3.47054687 -0.046875 2.71484375 C-0.36140625 2.14894531 -0.6759375 1.58304688 -1 1 C-0.67 0.67 -0.34 0.34 0 0 Z"/>
<path transform="translate(262,193)" fill="#2410C5" d="M0 0 C1.4370809 -0.05422947 2.87475462 -0.09289723 4.3125 -0.125 C5.11300781 -0.14820313 5.91351563 -0.17140625 6.73828125 -0.1953125 C9 0 9 0 12 2 C10.35 2 8.7 2 7 2 C7 2.66 7 3.32 7 4 C7.99 4 8.98 4 10 4 C10 4.66 10 5.32 10 6 C7.69 5.67 5.38 5.34 3 5 C2.67 6.98 2.34 8.96 2 11 C1.67 11 1.34 11 1 11 C0.875 8.125 0.875 8.125 1 5 C1.66 4.34 2.32 3.68 3 3 C1.68 3.33 0.36 3.66 -1 4 C-0.67 2.68 -0.34 1.36 0 0 Z"/>
<path transform="translate(121,196)" fill="#1904D8" d="M0 0 C0.99 0.33 1.98 0.66 3 1 C4.10228696 5.40914783 4.07654536 9.48382401 4 14 C3.67 14 3.34 14 3 14 C2.67 15.65 2.34 17.3 2 19 C1.34 19 0.68 19 0 19 C0 12.73 0 6.46 0 0 Z"/>
<path transform="translate(340,216)" fill="#1B0AC8" d="M0 0 C-0.33 0.78375 -0.66 1.5675 -1 2.375 C-2.11866511 4.84332497 -2.11866511 4.84332497 -2 7 C3.94 7.33 9.88 7.66 16 8 C16 8.33 16 8.66 16 9 C12.87501937 9.02895976 9.7500731 9.04678483 6.625 9.0625 C5.73554688 9.07087891 4.84609375 9.07925781 3.9296875 9.08789062 C2.65351563 9.09272461 2.65351563 9.09272461 1.3515625 9.09765625 C0.17327881 9.10551147 0.17327881 9.10551147 -1.02880859 9.11352539 C-3 9 -3 9 -5 8 C-5 6.68 -5 5.36 -5 4 C-5.66 4 -6.32 4 -7 4 C-7 5.65 -7 7.3 -7 9 C-7.33 9 -7.66 9 -8 9 C-8 7.02 -8 5.04 -8 3 C-2.25 0 -2.25 0 0 0 Z"/>
<path transform="translate(406.8125,212.25)" fill="#220FBE" d="M0 0 C1.0828125 0.37125 1.0828125 0.37125 2.1875 0.75 C1.13875002 3.37187494 0.53818687 4.54371361 -1.9375 6 C-2.55625 6.2475 -3.175 6.495 -3.8125 6.75 C-3.8125 5.76 -3.8125 4.77 -3.8125 3.75 C-4.60914063 4.30880859 -4.60914063 4.30880859 -5.421875 4.87890625 C-6.12828125 5.35199219 -6.8346875 5.82507813 -7.5625 6.3125 C-8.25859375 6.78816406 -8.9546875 7.26382813 -9.671875 7.75390625 C-11.8125 8.75 -11.8125 8.75 -14.078125 8.40234375 C-14.65046875 8.18707031 -15.2228125 7.97179687 -15.8125 7.75 C-15.03326172 7.38648438 -15.03326172 7.38648438 -14.23828125 7.015625 C-10.83098851 5.37810908 -8.01226183 3.92188809 -5.125 1.4375 C-2.8125 -0.25 -2.8125 -0.25 0 0 Z"/>
<path transform="translate(130,166)" fill="#1803DB" d="M0 0 C2.67166939 1.97471216 3.04708506 3.18834025 3.875 6.5 C4 10 4 10 2.5625 11.9375 C2.046875 12.288125 1.53125 12.63875 1 13 C0.01 12.67 -0.98 12.34 -2 12 C-1.85962479 10.18706911 -1.71255111 8.3746557 -1.5625 6.5625 C-1.48128906 5.55316406 -1.40007812 4.54382813 -1.31640625 3.50390625 C-1 1 -1 1 0 0 Z"/>
<path transform="translate(186,209)" fill="#2516BA" d="M0 0 C0.33 0 0.66 0 1 0 C1 3.63 1 7.26 1 11 C1.66 11 2.32 11 3 11 C3 8.69 3 6.38 3 4 C3.33 4 3.66 4 4 4 C5.29243536 8.1196377 6.26252625 11.66831683 6 16 C5.34 15.01 4.68 14.02 4 13 C3.34 13.66 2.68 14.32 2 15 C-0.125 14.625 -0.125 14.625 -2 14 C-1.01 14 -0.02 14 1 14 C0.66226563 13.44828125 0.32453125 12.8965625 -0.0234375 12.328125 C-1.21101261 9.49694595 -1.02275703 7.77295344 -0.625 4.75 C-0.51414063 3.85796875 -0.40328125 2.9659375 -0.2890625 2.046875 C-0.19367188 1.37140625 -0.09828125 0.6959375 0 0 Z"/>
<path transform="translate(240,173)" fill="#1D09CE" d="M0 0 C0.99 0 1.98 0 3 0 C3.19118486 4.77962147 2.98834962 8.60470084 1 13 C0.01 13.33 -0.98 13.66 -2 14 C-2.21192221 8.80790596 -1.5912689 4.873261 0 0 Z"/>
<path transform="translate(272.06640625,164.90234375)" fill="#1A03D8" d="M0 0 C1.23556641 0.01740234 1.23556641 0.01740234 2.49609375 0.03515625 C3.32238281 0.04417969 4.14867187 0.05320313 5 0.0625 C5.63808594 0.07410156 6.27617187 0.08570313 6.93359375 0.09765625 C6.93359375 1.08765625 6.93359375 2.07765625 6.93359375 3.09765625 C4.95359375 3.09765625 2.97359375 3.09765625 0.93359375 3.09765625 C0.93359375 4.08765625 0.93359375 5.07765625 0.93359375 6.09765625 C0.27359375 6.09765625 -0.38640625 6.09765625 -1.06640625 6.09765625 C-1.06640625 6.75765625 -1.06640625 7.41765625 -1.06640625 8.09765625 C-1.72640625 8.09765625 -2.38640625 8.09765625 -3.06640625 8.09765625 C-3.10882348 5.7647085 -3.10733562 3.43063058 -3.06640625 1.09765625 C-2.06640625 0.09765625 -2.06640625 0.09765625 0 0 Z"/>
<path transform="translate(392,171)" fill="#1903DE" d="M0 0 C0.33 0 0.66 0 1 0 C1 4.29 1 8.58 1 13 C0.34 13 -0.32 13 -1 13 C-1 15.64 -1 18.28 -1 21 C-1.66 21 -2.32 21 -3 21 C-1.63106796 1.63106796 -1.63106796 1.63106796 0 0 Z"/>
<path transform="translate(351,163)" fill="#2112B8" d="M0 0 C0.33 0 0.66 0 1 0 C0.67 4.29 0.34 8.58 0 13 C0.66 13 1.32 13 2 13 C1.67 15.31 1.34 17.62 1 20 C0.34 18.68 -0.32 17.36 -1 16 C-1.99 17.32 -2.98 18.64 -4 20 C-3.21085905 13.21338787 -1.58725189 6.63850633 0 0 Z"/>
<path transform="translate(268,166)" fill="#2212BB" d="M0 0 C0.33 0 0.66 0 1 0 C1 2.31 1 4.62 1 7 C1.66 7 2.32 7 3 7 C3.33 6.34 3.66 5.68 4 5 C3.14285714 13.57142857 3.14285714 13.57142857 1 17 C1 15.02 1 13.04 1 11 C0.01 11.33 -0.98 11.66 -2 12 C-1 3.42857143 -1 3.42857143 0 0 Z"/>
<path transform="translate(165,188)" fill="#2514B6" d="M0 0 C0.33 0 0.66 0 1 0 C1 1.98 1 3.96 1 6 C1.66 6 2.32 6 3 6 C3.33 5.34 3.66 4.68 4 4 C3.53199289 8.05606165 3.12046792 11.46588679 1 15 C0.67 13.02 0.34 11.04 0 9 C-0.66 10.65 -1.32 12.3 -2 14 C-3.25127906 10.45332822 -2.72285053 8.27746562 -1.5625 4.75 C-1.27503906 3.85796875 -0.98757812 2.9659375 -0.69140625 2.046875 C-0.46324219 1.37140625 -0.23507813 0.6959375 0 0 Z"/>
<path transform="translate(65,158)" fill="#2412B3" d="M0 0 C2.9464466 3.41207676 2.9464466 3.41207676 3.1796875 5.97265625 C2.28175146 12.13157655 0.77264066 18.03545437 -1 24 C-1.33 24 -1.66 24 -2 24 C-2.25098039 16.72156863 -2.25098039 16.72156863 -1 13.125 C0.4031564 8.74013624 0.16241942 4.5657903 0 0 Z"/>
<path transform="translate(94,251)" fill="#2714C0" d="M0 0 C2.1640625 -0.29296875 2.1640625 -0.29296875 4.625 -0.1875 C5.44226563 -0.16042969 6.25953125 -0.13335937 7.1015625 -0.10546875 C8.04128906 -0.05326172 8.04128906 -0.05326172 9 0 C9.38218767 1.65614657 9.71395102 3.32457024 10 5 C9 6 9 6 6.71484375 6.09765625 C5.34005859 6.08025391 5.34005859 6.08025391 3.9375 6.0625 C3.01839844 6.05347656 2.09929687 6.04445313 1.15234375 6.03515625 C0.44207031 6.02355469 -0.26820312 6.01195312 -1 6 C-1.33 5.01 -1.66 4.02 -2 3 C-1.34 2.01 -0.68 1.02 0 0 Z M0 2 C0 2.99 0 3.98 0 5 C2.64 5 5.28 5 8 5 C8 4.01 8 3.02 8 2 C5.36 2 2.72 2 0 2 Z"/>
<path transform="translate(132,176)" fill="#2313B4" d="M0 0 C1 3 1 3 0.00390625 5.04296875 C-0.47175781 5.75066406 -0.94742188 6.45835937 -1.4375 7.1875 C-1.91058594 7.90292969 -2.38367188 8.61835938 -2.87109375 9.35546875 C-3.42990234 10.16951172 -3.42990234 10.16951172 -4 11 C-4.66 10.67 -5.32 10.34 -6 10 C-6 9.01 -6 8.02 -6 7 C-7.98 7.99 -7.98 7.99 -10 9 C-8.35 6.69 -6.7 4.38 -5 2 C-3.68 2.33 -2.36 2.66 -1 3 C-0.67 2.01 -0.34 1.02 0 0 Z"/>
<path transform="translate(102,165)" fill="#1D07D1" d="M0 0 C1.98 0.495 1.98 0.495 4 1 C4 3.64 4 6.28 4 9 C3.01 9 2.02 9 1 9 C0.34 10.32 -0.32 11.64 -1 13 C-0.67 8.71 -0.34 4.42 0 0 Z"/>
<path transform="translate(108,261)" fill="#2310B6" d="M0 0 C1.65 0 3.3 0 5 0 C2.94766315 2.2477975 1.99332739 3.0022242 -1 4 C-3.22818441 4.06937062 -5.45834524 4.08457084 -7.6875 4.0625 C-9.45673828 4.04896484 -9.45673828 4.04896484 -11.26171875 4.03515625 C-12.16535156 4.02355469 -13.06898437 4.01195312 -14 4 C-14 3.34 -14 2.68 -14 2 C-9.38 2 -4.76 2 0 2 C0 1.34 0 0.68 0 0 Z"/>
<path transform="translate(246.125,152.875)" fill="#1D0FB9" d="M0 0 C0.94875 0.04125 1.8975 0.0825 2.875 0.125 C2.875 0.785 2.875 1.445 2.875 2.125 C3.865 2.455 4.855 2.785 5.875 3.125 C2.875 5.125 2.875 5.125 0.6875 4.75 C0.089375 4.54375 -0.50875 4.3375 -1.125 4.125 C-0.795 3.795 -0.465 3.465 -0.125 3.125 C-1.115 3.125 -2.105 3.125 -3.125 3.125 C-3.455 5.105 -3.785 7.085 -4.125 9.125 C-4.785 8.465 -5.445 7.805 -6.125 7.125 C-5.66604657 2.53546569 -4.9886353 0.19954541 0 0 Z"/>
<path transform="translate(162,204)" fill="#1B07D2" d="M0 0 C0.66 0.33 1.32 0.66 2 1 C2.0270043 2.45823212 2.04639787 3.91660675 2.0625 5.375 C2.07410156 6.18710938 2.08570313 6.99921875 2.09765625 7.8359375 C2 10 2 10 1 12 C0.01 12 -0.98 12 -2 12 C-2.17835515 7.45194365 -1.99785435 4.1205746 0 0 Z"/>
<path transform="translate(52,202)" fill="#2314B7" d="M0 0 C0.33 0 0.66 0 1 0 C1.33 1.65 1.66 3.3 2 5 C2.66 4.67 3.32 4.34 4 4 C3.25 10.625 3.25 10.625 1 14 C1 12.02 1 10.04 1 8 C0.34 8 -0.32 8 -1 8 C-1.33 9.65 -1.66 11.3 -2 13 C-3.45047396 10.09905209 -2.45356803 8.44027404 -1.5625 5.375 C-1.27503906 4.37210938 -0.98757812 3.36921875 -0.69140625 2.3359375 C-0.46324219 1.56507813 -0.23507813 0.79421875 0 0 Z"/>
<path transform="translate(368,208)" fill="#1802DE" d="M0 0 C0.33 0 0.66 0 1 0 C1 2.31 1 4.62 1 7 C2.98 7 4.96 7 7 7 C7 7.66 7 8.32 7 9 C4.03 9 1.06 9 -2 9 C-2.25 3.375 -2.25 3.375 0 0 Z"/>
<path transform="translate(242,180)" fill="#2314B5" d="M0 0 C1.25127906 3.54667178 0.72285053 5.72253438 -0.4375 9.25 C-0.72496094 10.14203125 -1.01242188 11.0340625 -1.30859375 11.953125 C-1.53675781 12.62859375 -1.76492187 13.3040625 -2 14 C-2.66 12.68 -3.32 11.36 -4 10 C-4.66 10 -5.32 10 -6 10 C-5.67 7.69 -5.34 5.38 -5 3 C-4.01 4.485 -4.01 4.485 -3 6 C-2.34 6 -1.68 6 -1 6 C-1.020625 5.195625 -1.04125 4.39125 -1.0625 3.5625 C-1 1 -1 1 0 0 Z"/>
<path transform="translate(430,264)" fill="#1C0ACA" d="M0 0 C1.8125 1.5 1.8125 1.5 3 3 C2.01 3 1.02 3 0 3 C-0.33 3.99 -0.66 4.98 -1 6 C-1.5775 5.690625 -2.155 5.38125 -2.75 5.0625 C-4.84294184 4.07416636 -6.74535275 3.4831387 -9 3 C-9 2.34 -9 1.68 -9 1 C-5.92122743 0.08777109 -3.20806377 -0.32903218 0 0 Z"/>
<path transform="translate(111,246)" fill="#2712C1" d="M0 0 C3.875 1.75 3.875 1.75 5 4 C5.46829268 11.37560976 5.46829268 11.37560976 3.5 14 C3.005 14.33 2.51 14.66 2 15 C2.020625 14.236875 2.04125 13.47375 2.0625 12.6875 C2.12942841 9.89814214 2.12942841 9.89814214 1 7 C1.185625 6.34 1.37125 5.68 1.5625 5 C1.706875 4.34 1.85125 3.68 2 3 C1.34 2.01 0.68 1.02 0 0 Z"/>
<path transform="translate(230,215)" fill="#1B06D6" d="M0 0 C0.66 0.66 1.32 1.32 2 2 C1.525625 2.45375 1.05125 2.9075 0.5625 3.375 C-1.09027808 4.93258204 -1.09027808 4.93258204 -2 7 C-2.99 7 -3.98 7 -5 7 C-5 7.66 -5 8.32 -5 9 C-5.66 9 -6.32 9 -7 9 C-6.875 6.1875 -6.875 6.1875 -6 3 C-2.9375 1.125 -2.9375 1.125 0 0 Z"/>
<path transform="translate(379,208)" fill="#1C0ACD" d="M0 0 C1.32 0 2.64 0 4 0 C4 1.65 4 3.3 4 5 C1.69 5.66 -0.62 6.32 -3 7 C-2.38722388 4.03824877 -1.74627478 2.61941217 0 0 Z"/>
<path transform="translate(127,181)" fill="#1D0ACA" d="M0 0 C0.75 1.6875 0.75 1.6875 1 4 C-1.13381449 7.2769294 -2.25018012 8.75006004 -6 10 C-6 9.34 -6 8.68 -6 8 C-5.34 8 -4.68 8 -4 8 C-4 7.34 -4 6.68 -4 6 C-5.65 6 -7.3 6 -9 6 C-6.76362469 3.76362469 -4.90380073 3.16152029 -2 2 C-1.34 1.34 -0.68 0.68 0 0 Z"/>
<path transform="translate(58,182)" fill="#2315BC" d="M0 0 C0.33 0 0.66 0 1 0 C1 1.65 1 3.3 1 5 C1.66 5 2.32 5 3 5 C3.33 4.34 3.66 3.68 4 3 C3.53199289 7.05606165 3.12046792 10.46588679 1 14 C1 11.69 1 9.38 1 7 C0.34 7 -0.32 7 -1 7 C-1.33 7.99 -1.66 8.98 -2 10 C-1.54177532 6.53058454 -1.10868317 3.32604951 0 0 Z"/>
<path transform="translate(307,167)" fill="#1804DB" d="M0 0 C1.32 1.32 2.64 2.64 4 4 C2.515 9.445 2.515 9.445 1 15 C0.34 15 -0.32 15 -1 15 C-0.67 10.05 -0.34 5.1 0 0 Z"/>
<path transform="translate(55,196)" fill="#1C05D9" d="M0 0 C0.66 0 1.32 0 2 0 C2.10824843 1.6026782 2.18570645 3.20745748 2.25 4.8125 C2.29640625 5.70582031 2.3428125 6.59914062 2.390625 7.51953125 C2 10 2 10 -0.015625 11.82421875 C-0.67046875 12.21222656 -1.3253125 12.60023438 -2 13 C-2 10.69 -2 8.38 -2 6 C-1.34 6 -0.68 6 0 6 C0 4.02 0 2.04 0 0 Z"/>
<path transform="translate(83,195)" fill="#1803DE" d="M0 0 C2.97 0 5.94 0 9 0 C9 0.66 9 1.32 9 2 C6.69 2.33 4.38 2.66 2 3 C1.67 4.32 1.34 5.64 1 7 C0.34 7 -0.32 7 -1 7 C-1.33 7.66 -1.66 8.32 -2 9 C-2 7.35 -2 5.7 -2 4 C-1.34 4 -0.68 4 0 4 C0 2.68 0 1.36 0 0 Z"/>
<path transform="translate(347,184)" fill="#1A07D4" d="M0 0 C0.66 0 1.32 0 2 0 C2 3.3 2 6.6 2 10 C0.68 10.33 -0.64 10.66 -2 11 C-1 3.57142857 -1 3.57142857 0 0 Z"/>
<path transform="translate(297,204)" fill="#2114BD" d="M0 0 C0.66 0.33 1.32 0.66 2 1 C2 1.66 2 2.32 2 3 C2.66 3 3.32 3 4 3 C4.33 2.01 4.66 1.02 5 0 C4.67 2.31 4.34 4.62 4 7 C4.66 7.33 5.32 7.66 6 8 C4.68 8 3.36 8 2 8 C2 7.01 2 6.02 2 5 C1.34 5 0.68 5 0 5 C-0.33 6.32 -0.66 7.64 -1 9 C-0.67 6.03 -0.34 3.06 0 0 Z"/>
<path transform="translate(232,201)" fill="#2719B7" d="M0 0 C0.33 0 0.66 0 1 0 C1 1.65 1 3.3 1 5 C1.66 5 2.32 5 3 5 C3.66 3.68 4.32 2.36 5 1 C4.34 4.3 3.68 7.6 3 11 C2.67 9.68 2.34 8.36 2 7 C-0.33075929 7.95865509 -0.33075929 7.95865509 -2 11 C-1 3.57142857 -1 3.57142857 0 0 Z"/>
<path transform="translate(302,194)" fill="#2312C4" d="M0 0 C-0.33 0.99 -0.66 1.98 -1 3 C-1.33 2.67 -1.66 2.34 -2 2 C-2.33 4.31 -2.66 6.62 -3 9 C-3.33 9 -3.66 9 -4 9 C-4.268125 7.906875 -4.53625 6.81375 -4.8125 5.6875 C-5.87663739 2.38307337 -6.34654664 1.05039578 -9 -1 C-3.375 -2.25 -3.375 -2.25 0 0 Z"/>
<path transform="translate(84,202)" fill="#1D08CD" d="M0 0 C-0.33 2.31 -0.66 4.62 -1 7 C-1.66 7 -2.32 7 -3 7 C-3 7.99 -3 8.98 -3 10 C-3.66 10 -4.32 10 -5 10 C-5.3669579 3.51707705 -5.3669579 3.51707705 -3.625 1.0625 C-2 0 -2 0 0 0 Z"/>
<path transform="translate(269,195)" fill="#1A02DE" d="M0 0 C1.65 0 3.3 0 5 0 C6.20272819 2.40545638 6.10071472 3.94996953 6.0625 6.625 C6.05347656 7.44226563 6.04445313 8.25953125 6.03515625 9.1015625 C6.02355469 9.72804687 6.01195312 10.35453125 6 11 C5.34 11 4.68 11 4 11 C3.67 8.03 3.34 5.06 3 2 C2.01 2 1.02 2 0 2 C0 1.34 0 0.68 0 0 Z"/>
<path transform="translate(100,174)" fill="#1F0EB9" d="M0 0 C0.66 0.66 1.32 1.32 2 2 C2.33 1.34 2.66 0.68 3 0 C3.66 0 4.32 0 5 0 C4.38461538 5.53846154 4.38461538 5.53846154 2.4375 7.875 C1.7259375 8.431875 1.7259375 8.431875 1 9 C1 7.68 1 6.36 1 5 C0.01 5.33 -0.98 5.66 -2 6 C-1.34 4.02 -0.68 2.04 0 0 Z"/>
<path transform="translate(69,153)" fill="#2516BF" d="M0 0 C-3.75 3 -3.75 3 -6 3 C-5.814375 4.093125 -5.62875 5.18625 -5.4375 6.3125 C-5 10 -5 10 -6 13 C-8.09065618 9.60268371 -8.42098999 6.95730595 -8 3 C-5.87141064 -0.36093057 -3.79035926 -0.30732643 0 0 Z"/>
<path transform="translate(344,190)" fill="#2213BC" d="M0 0 C0.33 0 0.66 0 1 0 C1 1.65 1 3.3 1 5 C1.99 4.67 2.98 4.34 4 4 C3.34 7.3 2.68 10.6 2 14 C1.67 14 1.34 14 1 14 C1 11.69 1 9.38 1 7 C0.34 7 -0.32 7 -1 7 C-0.67 4.69 -0.34 2.38 0 0 Z"/>
<path transform="translate(188,208)" fill="#1A03DB" d="M0 0 C0.66 0 1.32 0 2 0 C1.67 3.96 1.34 7.92 1 12 C0.34 12 -0.32 12 -1 12 C-1.02687279 10.18757948 -1.04633715 8.37504767 -1.0625 6.5625 C-1.07410156 5.55316406 -1.08570313 4.54382813 -1.09765625 3.50390625 C-1 1 -1 1 0 0 Z"/>
<path transform="translate(181,245)" fill="#1A02E7" d="M0 0 C0.99 0.33 1.98 0.66 3 1 C2.67 2.65 2.34 4.3 2 6 C0.68 6.33 -0.64 6.66 -2 7 C-2 3 -2 3 0 0 Z"/>
<path transform="translate(115,221)" fill="#1E0CCC" d="M0 0 C0 2 0 2 -1.3125 3.625 C-3 5 -3 5 -6 5 C-6.33 4.34 -6.66 3.68 -7 3 C-7.99 2.34 -8.98 1.68 -10 1 C-6.61981469 -0.04005702 -3.5219721 -0.08004482 0 0 Z"/>
<path transform="translate(297,209)" fill="#1804DD" d="M0 0 C0.66 0 1.32 0 2 0 C2 0.99 2 1.98 2 3 C3.65 3 5.3 3 7 3 C7.33 4.32 7.66 5.64 8 7 C5.69 6.34 3.38 5.68 1 5 C0.67 3.35 0.34 1.7 0 0 Z"/>
<path transform="translate(178,153)" fill="#1D0DBE" d="M0 0 C0 0.99 0 1.98 0 3 C0.66 3.33 1.32 3.66 2 4 C1.195625 4.12375 0.39125 4.2475 -0.4375 4.375 C-1.7059375 4.684375 -1.7059375 4.684375 -3 5 C-3.33 5.66 -3.66 6.32 -4 7 C-3.67 5.68 -3.34 4.36 -3 3 C-4.32 3 -5.64 3 -7 3 C-7 2.34 -7 1.68 -7 1 C-4.53721199 -0.231394 -2.7204945 -0.07159196 0 0 Z"/>
<path transform="translate(91,211)" fill="#1805D2" d="M0 0 C0.66 0 1.32 0 2 0 C1.38722388 2.96175123 0.74627478 4.38058783 -1 7 C-4.125 7.1875 -4.125 7.1875 -7 7 C-6.01 6.67 -5.02 6.34 -4 6 C-4 5.01 -4 4.02 -4 3 C-2.68 2.67 -1.36 2.34 0 2 C0 1.34 0 0.68 0 0 Z"/>
<path transform="translate(370,193)" fill="#2415B8" d="M0 0 C1.13763197 3.43727375 0.88590871 6.02164469 0.25 9.5625 C0.09015625 10.51253906 -0.0696875 11.46257812 -0.234375 12.44140625 C-1.04255064 15.14219731 -1.84504915 16.24170219 -4 18 C-3.31195504 11.80759538 -1.71951285 5.98044406 0 0 Z"/>
<path transform="translate(236,195)" fill="#1A02DC" d="M0 0 C0.33 0 0.66 0 1 0 C1.28571429 7.42857143 1.28571429 7.42857143 -1 11 C-1.66 11 -2.32 11 -3 11 C-3.39253254 6.55129785 -2.15305957 3.85756507 0 0 Z"/>
<path transform="translate(89,173)" fill="#1902DF" d="M0 0 C0.66 0 1.32 0 2 0 C1.9278125 0.69867188 1.855625 1.39734375 1.78125 2.1171875 C1.6884375 3.02726563 1.595625 3.93734375 1.5 4.875 C1.4071875 5.77992188 1.314375 6.68484375 1.21875 7.6171875 C0.96952705 9.93313211 0.96952705 9.93313211 1 12 C0.01 12 -0.98 12 -2 12 C-2.28571429 3.42857143 -2.28571429 3.42857143 0 0 Z"/>
<path transform="translate(408,157)" fill="#1C0EBA" d="M0 0 C1.98 0.99 1.98 0.99 4 2 C2.68 2.33 1.36 2.66 0 3 C0 2.01 0 1.02 0 0 Z M-7 0 C-2.98923553 1.02840115 -0.73611164 2.95987596 2 6 C1.319375 5.71125 0.63875 5.4225 -0.0625 5.125 C-3.32893093 3.87402645 -6.62846123 2.92552045 -10 2 C-9.01 1.34 -8.02 0.68 -7 0 Z"/>
<path transform="translate(262,193)" fill="#2518AD" d="M0 0 C1.4370809 -0.05422947 2.87475462 -0.09289723 4.3125 -0.125 C5.11300781 -0.14820313 5.91351563 -0.17140625 6.73828125 -0.1953125 C9 0 9 0 12 2 C11.22914063 2.06058594 10.45828125 2.12117187 9.6640625 2.18359375 C8.66117187 2.26738281 7.65828125 2.35117188 6.625 2.4375 C5.12839844 2.55931641 5.12839844 2.55931641 3.6015625 2.68359375 C1.02072387 2.84965626 1.02072387 2.84965626 -1 4 C-0.67 2.68 -0.34 1.36 0 0 Z"/>
<path transform="translate(101,179)" fill="#1B0AC9" d="M0 0 C0 1.65 0 3.3 0 5 C-1.32 5.33 -2.64 5.66 -4 6 C-4 5.34 -4 4.68 -4 4 C-4.66 4 -5.32 4 -6 4 C-6 3.34 -6 2.68 -6 2 C-2.25 0 -2.25 0 0 0 Z"/>
<path transform="translate(160,255)" fill="#2716BF" d="M0 0 C1.79275866 3.11910856 2.34290718 5.67682428 2.625 9.25 C2.69976562 10.14203125 2.77453125 11.0340625 2.8515625 11.953125 C2.92503906 12.96632813 2.92503906 12.96632813 3 14 C1 13 1 13 0 10 C-0.06802967 8.27204648 -0.08495645 6.54164635 -0.0625 4.8125 C-0.05347656 3.91144531 -0.04445312 3.01039063 -0.03515625 2.08203125 C-0.02355469 1.39496094 -0.01195312 0.70789063 0 0 Z"/>
<path transform="translate(340,216)" fill="#1B06D5" d="M0 0 C-0.66 1.65 -1.32 3.3 -2 5 C-5 5 -5 5 -7 4 C-7 5.65 -7 7.3 -7 9 C-7.33 9 -7.66 9 -8 9 C-8 7.02 -8 5.04 -8 3 C-2.25 0 -2.25 0 0 0 Z"/>
<path transform="translate(387,193)" fill="#1A02DE" d="M0 0 C0.66 0 1.32 0 2 0 C2.17942163 3.94727588 2.09350689 6.5980513 0 10 C-0.66 10 -1.32 10 -2 10 C-1.54177532 6.53058454 -1.10868317 3.32604951 0 0 Z"/>
<path transform="translate(195,183)" fill="#1703DA" d="M0 0 C0.66 0.33 1.32 0.66 2 1 C1.41196203 4.02419525 0.77321882 7.01758453 0 10 C-0.66 10 -1.32 10 -2 10 C-1.85950482 8.52031676 -1.71245174 7.04125484 -1.5625 5.5625 C-1.48128906 4.73878906 -1.40007812 3.91507813 -1.31640625 3.06640625 C-1 1 -1 1 0 0 Z"/>
<path transform="translate(209,155)" fill="#200FB6" d="M0 0 C0.66 1.32 1.32 2.64 2 4 C0.02 6.31 -1.96 8.62 -4 11 C-4.33 9.68 -4.66 8.36 -5 7 C-4.01 7 -3.02 7 -2 7 C-2 6.01 -2 5.02 -2 4 C-1.34 4 -0.68 4 0 4 C0 2.68 0 1.36 0 0 Z"/>
<path transform="translate(178,243)" fill="#2210B9" d="M0 0 C1.98073365 0.280828 3.95958448 0.57496614 5.9375 0.875 C7.59072266 1.11863281 7.59072266 1.11863281 9.27734375 1.3671875 C10.17582031 1.57601562 11.07429687 1.78484375 12 2 C12.33 2.66 12.66 3.32 13 4 C8.65535464 3.39174965 4.32448133 2.73832608 0 2 C0 1.34 0 0.68 0 0 Z"/>
<path transform="translate(375,182)" fill="#1703DD" d="M0 0 C0.66 0 1.32 0 2 0 C2 1.32 2 2.64 2 4 C1.34 4 0.68 4 0 4 C0 6.31 0 8.62 0 11 C-0.66 10.67 -1.32 10.34 -2 10 C-2.17942163 6.05272412 -2.09350689 3.4019487 0 0 Z"/>
<path transform="translate(200,168)" fill="#1803DB" d="M0 0 C0.33 0 0.66 0 1 0 C1.25 2.75 1.25 2.75 1 6 C-1 8.375 -1 8.375 -3 10 C-2.25 3.375 -2.25 3.375 0 0 Z"/>
<path transform="translate(91,162)" fill="#2D1BC4" d="M0 0 C2.97 0 5.94 0 9 0 C9 0.33 9 0.66 9 1 C6.69 1 4.38 1 2 1 C2.33 3.31 2.66 5.62 3 8 C0.9375 6.25 0.9375 6.25 -1 4 C-0.67 2.68 -0.34 1.36 0 0 Z"/>
<path transform="translate(188,202)" fill="#2616BC" d="M0 0 C0.66 1.32 1.32 2.64 2 4 C2.66 4 3.32 4 4 4 C3.67 6.31 3.34 8.62 3 11 C2.67 11 2.34 11 2 11 C2 9.35 2 7.7 2 6 C1.01 6.33 0.02 6.66 -1 7 C-0.67 4.69 -0.34 2.38 0 0 Z"/>
<path transform="translate(388,199)" fill="#1E0CC3" d="M0 0 C1 3 1 3 0.3125 5.125 C-1 7 -1 7 -3.125 7.75 C-4.053125 7.87375 -4.053125 7.87375 -5 8 C-4.67 6.35 -4.34 4.7 -4 3 C-3.01 3.33 -2.02 3.66 -1 4 C-0.67 2.68 -0.34 1.36 0 0 Z"/>
<path transform="translate(378,172)" fill="#1803D8" d="M0 0 C0.33 0 0.66 0 1 0 C1.125 6.75 1.125 6.75 0 9 C-0.66 9 -1.32 9 -2 9 C-2.25 3.375 -2.25 3.375 0 0 Z"/>
<path transform="translate(352,166)" fill="#1803DA" d="M0 0 C0.66 0 1.32 0 2 0 C1.67 3.3 1.34 6.6 1 10 C0.34 10 -0.32 10 -1 10 C-0.67 6.7 -0.34 3.4 0 0 Z"/>
<path transform="translate(379,162)" fill="#2F1AC6" d="M0 0 C1.258125 -0.04125 2.51625 -0.0825 3.8125 -0.125 C4.52019531 -0.14820313 5.22789062 -0.17140625 5.95703125 -0.1953125 C8 0 8 0 11 2 C7.37 2.33 3.74 2.66 0 3 C0 2.01 0 1.02 0 0 Z"/>
<path transform="translate(301,159)" fill="#1704DC" d="M0 0 C2.86724686 0.57344937 3.8614515 0.8614515 6 3 C5.67 3.99 5.34 4.98 5 6 C3.0625 5.25 3.0625 5.25 1 4 C0.25 1.875 0.25 1.875 0 0 Z"/>
<path transform="translate(439,264)" fill="#2917CF" d="M0 0 C1.32 0 2.64 0 4 0 C4.33 1.32 4.66 2.64 5 4 C1.30458414 4.95024979 -1.30458414 4.95024979 -5 4 C-5 3.67 -5 3.34 -5 3 C-3.02 2.67 -1.04 2.34 1 2 C0.67 1.34 0.34 0.68 0 0 Z"/>
<path transform="translate(451,251)" fill="#1A02E3" d="M0 0 C-0.99 1.485 -0.99 1.485 -2 3 C-5.125 3.1875 -5.125 3.1875 -8 3 C-8 2.34 -8 1.68 -8 1 C-3.375 -1.125 -3.375 -1.125 0 0 Z"/>
<path transform="translate(170,176)" fill="#1603DA" d="M0 0 C0.66 0 1.32 0 2 0 C2.125 5.75 2.125 5.75 1 8 C0.34 8 -0.32 8 -1 8 C-1.125 2.25 -1.125 2.25 0 0 Z"/>
<path transform="translate(354.5625,154.9375)" fill="#1702E0" d="M0 0 C1.2065625 0.0309375 1.2065625 0.0309375 2.4375 0.0625 C1.7259375 0.68125 1.7259375 0.68125 1 1.3125 C-0.72516518 3.244685 -1.12834875 4.54442275 -1.5625 7.0625 C-2.2225 7.0625 -2.8825 7.0625 -3.5625 7.0625 C-3.60504356 5.06295254 -3.60330783 3.06208364 -3.5625 1.0625 C-2.5625 0.0625 -2.5625 0.0625 0 0 Z"/>
<path transform="translate(163,269)" fill="#2511C2" d="M0 0 C2.96175123 0.61277612 4.38058783 1.25372522 7 3 C7 3.66 7 4.32 7 5 C4.03824877 4.38722388 2.61941217 3.74627478 0 2 C0 1.34 0 0.68 0 0 Z"/>
<path transform="translate(414,192)" fill="#2212BA" d="M0 0 C0.66 0.99 1.32 1.98 2 3 C0.625 6.6875 0.625 6.6875 -1 10 C-1.66 10 -2.32 10 -3 10 C-2.01 6.7 -1.02 3.4 0 0 Z"/>
<path transform="translate(196,188)" fill="#2414B3" d="M0 0 C1.60080151 4.00200378 0.29279692 7.04556236 -1 11 C-3 8 -3 8 -3 5 C-2.34 5 -1.68 5 -1 5 C-0.67 3.35 -0.34 1.7 0 0 Z"/>
<path transform="translate(129,169)" fill="#1F0ED0" d="M0 0 C0.33 0 0.66 0 1 0 C1 1.98 1 3.96 1 6 C1.66 6 2.32 6 3 6 C2.67 7.32 2.34 8.64 2 10 C1.01 9.67 0.02 9.34 -1 9 C-0.67 6.03 -0.34 3.06 0 0 Z"/>
<path transform="translate(93,163)" fill="#1903DC" d="M0 0 C2.31 0 4.62 0 7 0 C6.67 0.99 6.34 1.98 6 3 C4.02 3 2.04 3 0 3 C0 2.01 0 1.02 0 0 Z"/>
<path transform="translate(263,195)" fill="#1A02DC" d="M0 0 C1.32 0.66 2.64 1.32 4 2 C3.01 2.33 2.02 2.66 1 3 C0.26676204 5.01508358 0.26676204 5.01508358 0 7 C-0.66 7 -1.32 7 -2 7 C-2.125 4.625 -2.125 4.625 -2 2 C-1.34 1.34 -0.68 0.68 0 0 Z"/>
<path transform="translate(409,207)" fill="#1B05D4" d="M0 0 C0.33 0 0.66 0 1 0 C1 2.31 1 4.62 1 7 C-0.65 6.67 -2.3 6.34 -4 6 C-2.69593116 3.98079663 -1.36176581 1.98075027 0 0 Z"/>
<path transform="translate(165,196)" fill="#1B03DB" d="M0 0 C0.33 0 0.66 0 1 0 C1 2.31 1 4.62 1 7 C0.01 7 -0.98 7 -2 7 C-1.125 1.125 -1.125 1.125 0 0 Z"/>
<path transform="translate(301,183)" fill="#2112B9" d="M0 0 C2.00720923 0.28674418 4.0085944 0.61866701 6 1 C5.34 2.32 4.68 3.64 4 5 C3.34 5 2.68 5 2 5 C2 4.01 2 3.02 2 2 C1.01 1.67 0.02 1.34 -1 1 C-0.67 0.67 -0.34 0.34 0 0 Z"/>
<path transform="translate(378,164)" fill="#2012BB" d="M0 0 C0.33 0 0.66 0 1 0 C1.36923077 7.50769231 1.36923077 7.50769231 -0.5 10 C-0.995 10.33 -1.49 10.66 -2 11 C-1 3.57142857 -1 3.57142857 0 0 Z"/>
</svg>